<mxfile host="drawio-plugin" modified="2021-04-19T14:40:20.889Z" agent="5.0 (Macintosh; Intel Mac OS X 10_15_7) AppleWebKit/537.36 (KHTML, like Gecko) Chrome/87.0.4280.141 Safari/537.36" etag="FJIdZ7ueSzBqVPabjwk7" version="13.7.9" type="embed" pages="2"><diagram id="gaDYlRPHDyzkGXV9FJb6" name="sys-overview"><mxGraphModel dx="1180" dy="636" grid="1" gridSize="10" guides="1" tooltips="1" connect="1" arrows="1" fold="1" page="1" pageScale="1" pageWidth="1654" pageHeight="1169" math="0" shadow="0"><root><mxCell id="fodHKlVipyK6UHabS3Oc-0"/><mxCell id="fodHKlVipyK6UHabS3Oc-1" parent="fodHKlVipyK6UHabS3Oc-0"/><mxCell id="NdXptqWapQIYRM5oAKt2-2" value="Public Website" style="rounded=0;whiteSpace=wrap;html=1;fontColor=#333333;fontSize=20;verticalAlign=top;align=left;fillColor=none;strokeWidth=1;spacingLeft=3;" parent="fodHKlVipyK6UHabS3Oc-1" vertex="1"><mxGeometry x="1040" y="878.85" width="182" height="84.18" as="geometry"/></mxCell><mxCell id="fVhWrwYJ8Jam_pzhmITV-17" value="Risk Assessment" style="rounded=0;whiteSpace=wrap;html=1;fontColor=#333333;fontSize=20;verticalAlign=top;align=left;fillColor=none;strokeWidth=1;spacingLeft=3;" parent="fodHKlVipyK6UHabS3Oc-1" vertex="1"><mxGeometry x="727" y="156.01" width="201" height="100" as="geometry"/></mxCell><mxCell id="VZHW64wO5VbjyCQjtFWW-3" style="edgeStyle=none;rounded=0;orthogonalLoop=1;jettySize=auto;html=1;startArrow=none;startFill=0;" parent="fodHKlVipyK6UHabS3Oc-1" source="jxuDQZtIKYb5tDD2cEzy-6" target="jxuDQZtIKYb5tDD2cEzy-7" edge="1"><mxGeometry relative="1" as="geometry"/></mxCell><mxCell id="jxuDQZtIKYb5tDD2cEzy-6" value="Test / Results" style="rounded=0;whiteSpace=wrap;html=1;fontColor=#333333;fontSize=20;verticalAlign=top;align=left;fillColor=none;strokeWidth=1;spacingLeft=3;" parent="fodHKlVipyK6UHabS3Oc-1" vertex="1"><mxGeometry x="795.5" y="492.38" width="157.5" height="114.5" as="geometry"/></mxCell><mxCell id="ijQ2ijvgC0ZVVR6Z_3XV-0" style="edgeStyle=none;rounded=0;orthogonalLoop=1;jettySize=auto;html=1;entryX=1.009;entryY=0.965;entryDx=0;entryDy=0;entryPerimeter=0;startArrow=none;startFill=0;endArrow=classic;endFill=1;" parent="fodHKlVipyK6UHabS3Oc-1" source="jxuDQZtIKYb5tDD2cEzy-7" target="fodHKlVipyK6UHabS3Oc-14" edge="1"><mxGeometry relative="1" as="geometry"/></mxCell><mxCell id="jxuDQZtIKYb5tDD2cEzy-7" value="User Notification" style="rounded=0;whiteSpace=wrap;html=1;fontColor=#333333;fontSize=20;verticalAlign=top;align=left;fillColor=none;strokeWidth=1;spacingLeft=3;" parent="fodHKlVipyK6UHabS3Oc-1" vertex="1"><mxGeometry x="995.25" y="590" width="157.5" height="113.75" as="geometry"/></mxCell><mxCell id="jxuDQZtIKYb5tDD2cEzy-1" value="Self Isolation Payments (SIP)" style="rounded=0;whiteSpace=wrap;html=1;fontColor=#333333;fontSize=20;verticalAlign=top;align=left;fillColor=none;strokeWidth=1;spacingLeft=3;" parent="fodHKlVipyK6UHabS3Oc-1" vertex="1"><mxGeometry x="346.5" y="130" width="331.5" height="160" as="geometry"/></mxCell><mxCell id="fodHKlVipyK6UHabS3Oc-2" value="&lt;font style=&quot;font-size: 20px&quot;&gt;&lt;font color=&quot;#333333&quot;&gt;NHS CV19 App and Cloud Services&lt;/font&gt;&lt;br&gt;&lt;/font&gt;" style="rounded=0;whiteSpace=wrap;html=1;fillColor=none;verticalAlign=top;fontSize=20;strokeColor=#FFB570;strokeWidth=3;align=left;spacingLeft=3;" parent="fodHKlVipyK6UHabS3Oc-1" vertex="1"><mxGeometry x="290" y="332.5" width="463" height="327" as="geometry"/></mxCell><mxCell id="fodHKlVipyK6UHabS3Oc-14" value="" style="rounded=0;whiteSpace=wrap;html=1;fontSize=16;fillColor=none;verticalAlign=top;align=center;strokeColor=#FFB570;strokeWidth=1;dashed=1;dashPattern=1 2;" parent="fodHKlVipyK6UHabS3Oc-1" vertex="1"><mxGeometry x="502" y="385.5" width="213" height="241" as="geometry"/></mxCell><mxCell id="fodHKlVipyK6UHabS3Oc-3" value="&lt;font color=&quot;#333333&quot;&gt;QR Venues&lt;/font&gt;" style="rounded=0;whiteSpace=wrap;html=1;fillColor=none;verticalAlign=top;fontSize=20;align=left;spacingLeft=3;strokeColor=#FFB570;strokeWidth=3;" parent="fodHKlVipyK6UHabS3Oc-1" vertex="1"><mxGeometry x="1020" y="201.38" width="240" height="155" as="geometry"/></mxCell><mxCell id="fodHKlVipyK6UHabS3Oc-4" value="" style="rounded=0;whiteSpace=wrap;html=1;fillColor=none;verticalAlign=top;fontSize=16;strokeColor=#FFB570;strokeWidth=1;dashed=1;dashPattern=1 2;" parent="fodHKlVipyK6UHabS3Oc-1" vertex="1"><mxGeometry x="325" y="385.5" width="155" height="163" as="geometry"/></mxCell><mxCell id="fodHKlVipyK6UHabS3Oc-5" style="rounded=0;orthogonalLoop=1;jettySize=auto;html=1;fontSize=16;entryX=0;entryY=0.5;entryDx=0;entryDy=0;exitX=1;exitY=0.25;exitDx=0;exitDy=0;strokeColor=#FFB570;" parent="fodHKlVipyK6UHabS3Oc-1" source="fodHKlVipyK6UHabS3Oc-4" target="fodHKlVipyK6UHabS3Oc-63" edge="1"><mxGeometry relative="1" as="geometry"/></mxCell><mxCell id="fodHKlVipyK6UHabS3Oc-6" style="edgeStyle=none;rounded=0;orthogonalLoop=1;jettySize=auto;html=1;exitX=0.5;exitY=1;exitDx=0;exitDy=0;strokeColor=#FFB570;" parent="fodHKlVipyK6UHabS3Oc-1" source="fodHKlVipyK6UHabS3Oc-4" target="fodHKlVipyK6UHabS3Oc-10" edge="1"><mxGeometry relative="1" as="geometry"><mxPoint x="455" y="317.5" as="sourcePoint"/></mxGeometry></mxCell><mxCell id="fodHKlVipyK6UHabS3Oc-8" value="NHS CV19 &lt;br style=&quot;font-size: 14px;&quot;&gt;iOS App" style="rounded=0;whiteSpace=wrap;html=1;fillColor=#d5e8d4;strokeColor=#82b366;fontSize=14;" parent="fodHKlVipyK6UHabS3Oc-1" vertex="1"><mxGeometry x="342.5" y="400.5" width="120" height="60" as="geometry"/></mxCell><mxCell id="fodHKlVipyK6UHabS3Oc-9" value="NHS CV19 Android App" style="rounded=0;whiteSpace=wrap;html=1;fillColor=#d5e8d4;strokeColor=#82b366;fontSize=14;" parent="fodHKlVipyK6UHabS3Oc-1" vertex="1"><mxGeometry x="342.5" y="473.5" width="120" height="60" as="geometry"/></mxCell><mxCell id="fodHKlVipyK6UHabS3Oc-11" style="edgeStyle=none;rounded=0;orthogonalLoop=1;jettySize=auto;html=1;entryX=1;entryY=0.5;entryDx=0;entryDy=0;strokeColor=#FFB570;" parent="fodHKlVipyK6UHabS3Oc-1" source="fodHKlVipyK6UHabS3Oc-14" target="fodHKlVipyK6UHabS3Oc-10" edge="1"><mxGeometry relative="1" as="geometry"/></mxCell><mxCell id="fodHKlVipyK6UHabS3Oc-15" value="Cloud Services Infrastructure" style="rounded=0;whiteSpace=wrap;html=1;fillColor=#d5e8d4;strokeColor=#82b366;fontSize=14;" parent="fodHKlVipyK6UHabS3Oc-1" vertex="1"><mxGeometry x="537.5" y="547" width="152" height="60.5" as="geometry"/></mxCell><mxCell id="fodHKlVipyK6UHabS3Oc-16" style="edgeStyle=none;rounded=0;orthogonalLoop=1;jettySize=auto;html=1;exitX=-0.006;exitY=0.603;exitDx=0;exitDy=0;startArrow=none;startFill=0;endArrow=classic;endFill=1;exitPerimeter=0;" parent="fodHKlVipyK6UHabS3Oc-1" source="fodHKlVipyK6UHabS3Oc-3" edge="1"><mxGeometry relative="1" as="geometry"><mxPoint x="717" y="420" as="targetPoint"/></mxGeometry></mxCell><mxCell id="fodHKlVipyK6UHabS3Oc-17" value="Venue Risk&amp;nbsp;" style="rounded=0;whiteSpace=wrap;html=1;fillColor=#f5f5f5;strokeColor=#666666;fontColor=#333333;" parent="fodHKlVipyK6UHabS3Oc-1" vertex="1"><mxGeometry x="1050.5" y="275" width="80" height="28.38" as="geometry"/></mxCell><mxCell id="fodHKlVipyK6UHabS3Oc-18" style="edgeStyle=none;rounded=0;orthogonalLoop=1;jettySize=auto;html=1;entryX=0;entryY=0.87;entryDx=0;entryDy=0;entryPerimeter=0;exitX=0.5;exitY=0;exitDx=0;exitDy=0;" parent="fodHKlVipyK6UHabS3Oc-1" source="jxuDQZtIKYb5tDD2cEzy-7" target="xcfaa9lEfM26dsPhkLc1-1" edge="1"><mxGeometry relative="1" as="geometry"><mxPoint x="990" y="638" as="sourcePoint"/><mxPoint x="1090" y="630" as="targetPoint"/></mxGeometry></mxCell><mxCell id="fodHKlVipyK6UHabS3Oc-19" style="edgeStyle=none;rounded=0;orthogonalLoop=1;jettySize=auto;html=1;" parent="fodHKlVipyK6UHabS3Oc-1" edge="1"><mxGeometry relative="1" as="geometry"><mxPoint x="1311" y="387.5" as="sourcePoint"/><mxPoint x="1429" y="387.5" as="targetPoint"/></mxGeometry></mxCell><mxCell id="fodHKlVipyK6UHabS3Oc-20" value="dependency" style="edgeLabel;html=1;align=center;verticalAlign=middle;resizable=0;points=[];fontSize=12;" parent="fodHKlVipyK6UHabS3Oc-19" vertex="1" connectable="0"><mxGeometry x="-0.2456" relative="1" as="geometry"><mxPoint x="14.83" y="-2.5" as="offset"/></mxGeometry></mxCell><mxCell id="fodHKlVipyK6UHabS3Oc-21" value="System/Subsystem" style="rounded=0;whiteSpace=wrap;html=1;fillColor=#f5f5f5;strokeColor=#666666;fontColor=#333333;" parent="fodHKlVipyK6UHabS3Oc-1" vertex="1"><mxGeometry x="1310" y="505" width="121" height="34" as="geometry"/></mxCell><mxCell id="fodHKlVipyK6UHabS3Oc-23" value="Keys" style="text;html=1;strokeColor=none;fillColor=none;align=center;verticalAlign=middle;whiteSpace=wrap;rounded=0;fontSize=22;" parent="fodHKlVipyK6UHabS3Oc-1" vertex="1"><mxGeometry x="1317" y="342" width="40" height="20" as="geometry"/></mxCell><mxCell id="fodHKlVipyK6UHabS3Oc-24" style="edgeStyle=none;rounded=0;orthogonalLoop=1;jettySize=auto;html=1;fontSize=12;exitX=0.96;exitY=0.65;exitDx=0;exitDy=0;exitPerimeter=0;" parent="fodHKlVipyK6UHabS3Oc-1" source="fodHKlVipyK6UHabS3Oc-25" target="fodHKlVipyK6UHabS3Oc-8" edge="1"><mxGeometry relative="1" as="geometry"/></mxCell><mxCell id="fodHKlVipyK6UHabS3Oc-25" value="iOS App User" style="pointerEvents=1;shadow=0;dashed=0;html=1;strokeColor=none;labelPosition=center;verticalLabelPosition=bottom;verticalAlign=top;align=center;shape=mxgraph.mscae.intune.user_group;fontSize=12;fontColor=#808080;fillColor=#808080;" parent="fodHKlVipyK6UHabS3Oc-1" vertex="1"><mxGeometry x="164" y="364.5" width="50" height="37" as="geometry"/></mxCell><mxCell id="fodHKlVipyK6UHabS3Oc-26" style="edgeStyle=none;rounded=0;orthogonalLoop=1;jettySize=auto;html=1;fontSize=12;exitX=0.96;exitY=0.65;exitDx=0;exitDy=0;exitPerimeter=0;" parent="fodHKlVipyK6UHabS3Oc-1" source="fodHKlVipyK6UHabS3Oc-27" target="fodHKlVipyK6UHabS3Oc-9" edge="1"><mxGeometry relative="1" as="geometry"/></mxCell><mxCell id="fodHKlVipyK6UHabS3Oc-27" value="Android App User" style="pointerEvents=1;shadow=0;dashed=0;html=1;strokeColor=none;labelPosition=center;verticalLabelPosition=bottom;verticalAlign=top;align=center;shape=mxgraph.mscae.intune.user_group;fontSize=12;fontColor=#808080;fillColor=#808080;" parent="fodHKlVipyK6UHabS3Oc-1" vertex="1"><mxGeometry x="155" y="479.5" width="50" height="37" as="geometry"/></mxCell><mxCell id="fodHKlVipyK6UHabS3Oc-28" value="&lt;font color=&quot;#333333&quot;&gt;Analytics&lt;/font&gt;" style="rounded=0;whiteSpace=wrap;html=1;fillColor=none;fontColor=#000000;fontSize=20;align=left;verticalAlign=top;spacingLeft=3;strokeColor=#FFB570;strokeWidth=3;" parent="fodHKlVipyK6UHabS3Oc-1" vertex="1"><mxGeometry x="720" y="721.94" width="270" height="150" as="geometry"/></mxCell><mxCell id="fodHKlVipyK6UHabS3Oc-29" value="NHS CV19 Core&amp;nbsp;" style="rounded=0;whiteSpace=wrap;html=1;fillColor=#d5e8d4;strokeColor=#82b366;" parent="fodHKlVipyK6UHabS3Oc-1" vertex="1"><mxGeometry x="1310" y="413" width="121" height="37" as="geometry"/></mxCell><mxCell id="fodHKlVipyK6UHabS3Oc-30" value="QR Posters&lt;br&gt;Web App" style="rounded=0;whiteSpace=wrap;html=1;fillColor=#f5f5f5;strokeColor=#666666;fontColor=#333333;" parent="fodHKlVipyK6UHabS3Oc-1" vertex="1"><mxGeometry x="1147" y="236.69" width="80" height="31.62" as="geometry"/></mxCell><mxCell id="fodHKlVipyK6UHabS3Oc-31" value="QR Venues&lt;br&gt;Infrastructure" style="rounded=0;whiteSpace=wrap;html=1;fillColor=#f5f5f5;strokeColor=#666666;fontColor=#333333;" parent="fodHKlVipyK6UHabS3Oc-1" vertex="1"><mxGeometry x="1050" y="310" width="177" height="33.38" as="geometry"/></mxCell><mxCell id="fodHKlVipyK6UHabS3Oc-35" value="2021-04-19" style="text;html=1;strokeColor=none;fillColor=none;align=center;verticalAlign=middle;whiteSpace=wrap;rounded=0;dashed=1;fontSize=24;fontColor=#FF0000;" parent="fodHKlVipyK6UHabS3Oc-1" vertex="1"><mxGeometry x="136.5" y="182.5" width="130" height="20" as="geometry"/></mxCell><mxCell id="fodHKlVipyK6UHabS3Oc-36" value="Apple / Google" style="rounded=0;whiteSpace=wrap;html=1;fillColor=#f9f7ed;strokeColor=#36393d;" parent="fodHKlVipyK6UHabS3Oc-1" vertex="1"><mxGeometry x="1310" y="458" width="121" height="35" as="geometry"/></mxCell><mxCell id="fVhWrwYJ8Jam_pzhmITV-30" style="edgeStyle=none;rounded=0;orthogonalLoop=1;jettySize=auto;html=1;entryX=1;entryY=0.25;entryDx=0;entryDy=0;startArrow=none;startFill=0;endArrow=classic;endFill=1;fontSize=20;" parent="fodHKlVipyK6UHabS3Oc-1" source="fodHKlVipyK6UHabS3Oc-38" target="fodHKlVipyK6UHabS3Oc-30" edge="1"><mxGeometry relative="1" as="geometry"/></mxCell><mxCell id="fodHKlVipyK6UHabS3Oc-38" value="Business &lt;br&gt;(Venue) Owner" style="pointerEvents=1;shadow=0;dashed=0;html=1;strokeColor=none;labelPosition=center;verticalLabelPosition=bottom;verticalAlign=top;align=center;shape=mxgraph.mscae.intune.user_group;fontSize=12;fontColor=#808080;fillColor=#808080;" parent="fodHKlVipyK6UHabS3Oc-1" vertex="1"><mxGeometry x="1307" y="176.38" width="50" height="37" as="geometry"/></mxCell><mxCell id="fodHKlVipyK6UHabS3Oc-43" value="&lt;font&gt;&lt;font style=&quot;font-size: 20px&quot; color=&quot;#333333&quot;&gt;Federated Key Exchange&lt;/font&gt;&lt;br&gt;&lt;/font&gt;" style="rounded=0;whiteSpace=wrap;html=1;fillColor=none;strokeColor=#000000;fontColor=#000000;fontSize=20;align=left;verticalAlign=top;spacingLeft=3;" parent="fodHKlVipyK6UHabS3Oc-1" vertex="1"><mxGeometry x="337.5" y="721.94" width="220" height="105.88" as="geometry"/></mxCell><mxCell id="fodHKlVipyK6UHabS3Oc-44" value="NearForm&lt;br&gt;Store and Forward APIs" style="rounded=0;whiteSpace=wrap;html=1;fillColor=#f5f5f5;strokeColor=#666666;fontColor=#333333;" parent="fodHKlVipyK6UHabS3Oc-1" vertex="1"><mxGeometry x="396.5" y="777.94" width="130" height="42.88" as="geometry"/></mxCell><mxCell id="fodHKlVipyK6UHabS3Oc-45" style="rounded=0;orthogonalLoop=1;jettySize=auto;html=1;exitX=0.25;exitY=1;exitDx=0;exitDy=0;" parent="fodHKlVipyK6UHabS3Oc-1" source="fodHKlVipyK6UHabS3Oc-14" target="fodHKlVipyK6UHabS3Oc-43" edge="1"><mxGeometry relative="1" as="geometry"><mxPoint x="591.5" y="513.5" as="sourcePoint"/><mxPoint x="430" y="701.5" as="targetPoint"/></mxGeometry></mxCell><mxCell id="fodHKlVipyK6UHabS3Oc-46" value="Systems and &lt;br&gt;Product Dependencies&lt;br&gt;in context of the &lt;br&gt;NHS CV19 App System" style="text;html=1;strokeColor=none;fillColor=none;align=center;verticalAlign=middle;whiteSpace=wrap;rounded=0;fontSize=20;" parent="fodHKlVipyK6UHabS3Oc-1" vertex="1"><mxGeometry x="92.5" y="50" width="218" height="130.5" as="geometry"/></mxCell><mxCell id="mDT_LmEJNA9OEM6lDlEC-11" style="edgeStyle=none;rounded=0;orthogonalLoop=1;jettySize=auto;html=1;exitX=1;exitY=0.5;exitDx=0;exitDy=0;" parent="fodHKlVipyK6UHabS3Oc-1" source="fodHKlVipyK6UHabS3Oc-47" target="mDT_LmEJNA9OEM6lDlEC-5" edge="1"><mxGeometry relative="1" as="geometry"><mxPoint x="977" y="771.94" as="sourcePoint"/></mxGeometry></mxCell><mxCell id="mDT_LmEJNA9OEM6lDlEC-13" style="edgeStyle=none;rounded=0;orthogonalLoop=1;jettySize=auto;html=1;" parent="fodHKlVipyK6UHabS3Oc-1" source="fodHKlVipyK6UHabS3Oc-52" target="mDT_LmEJNA9OEM6lDlEC-12" edge="1"><mxGeometry relative="1" as="geometry"/></mxCell><mxCell id="fodHKlVipyK6UHabS3Oc-47" value="Mobile Analytics&amp;nbsp;&lt;br&gt;(S3)" style="rounded=0;whiteSpace=wrap;html=1;fillColor=#f5f5f5;strokeColor=#666666;fontColor=#333333;" parent="fodHKlVipyK6UHabS3Oc-1" vertex="1"><mxGeometry x="857" y="727.94" width="105.75" height="41" as="geometry"/></mxCell><mxCell id="fodHKlVipyK6UHabS3Oc-48" style="edgeStyle=none;rounded=0;orthogonalLoop=1;jettySize=auto;html=1;fontSize=20;" parent="fodHKlVipyK6UHabS3Oc-1" source="fodHKlVipyK6UHabS3Oc-49" target="mDT_LmEJNA9OEM6lDlEC-7" edge="1"><mxGeometry relative="1" as="geometry"><mxPoint x="979.5" y="770.19" as="targetPoint"/></mxGeometry></mxCell><mxCell id="fodHKlVipyK6UHabS3Oc-49" value="Quicksight &lt;br&gt;User" style="pointerEvents=1;shadow=0;dashed=0;html=1;strokeColor=none;labelPosition=center;verticalLabelPosition=bottom;verticalAlign=top;align=center;shape=mxgraph.mscae.intune.user_group;fontSize=12;fontColor=#808080;fillColor=#808080;" parent="fodHKlVipyK6UHabS3Oc-1" vertex="1"><mxGeometry x="700" y="898.82" width="50" height="37" as="geometry"/></mxCell><mxCell id="fodHKlVipyK6UHabS3Oc-50" style="edgeStyle=none;rounded=0;orthogonalLoop=1;jettySize=auto;html=1;fontSize=20;" parent="fodHKlVipyK6UHabS3Oc-1" source="fodHKlVipyK6UHabS3Oc-51" target="mDT_LmEJNA9OEM6lDlEC-5" edge="1"><mxGeometry relative="1" as="geometry"><mxPoint x="980.5" y="806.94" as="targetPoint"/></mxGeometry></mxCell><mxCell id="fodHKlVipyK6UHabS3Oc-51" value="Data Analyst" style="pointerEvents=1;shadow=0;dashed=0;html=1;strokeColor=none;labelPosition=center;verticalLabelPosition=bottom;verticalAlign=top;align=center;shape=mxgraph.mscae.intune.user_group;fontSize=12;fontColor=#808080;fillColor=#808080;" parent="fodHKlVipyK6UHabS3Oc-1" vertex="1"><mxGeometry x="1149.75" y="774.32" width="50" height="37" as="geometry"/></mxCell><UserObject label="Datasets&lt;br&gt;Public / Export&lt;br&gt;(S3)" link="https://confluence/pages/32916398/App+System+Analytics" id="fodHKlVipyK6UHabS3Oc-52"><mxCell style="rounded=0;whiteSpace=wrap;html=1;fillColor=#f5f5f5;strokeColor=#666666;fontColor=#333333;" parent="fodHKlVipyK6UHabS3Oc-1" vertex="1"><mxGeometry x="857" y="821.94" width="106" height="42" as="geometry"/></mxCell></UserObject><mxCell id="fodHKlVipyK6UHabS3Oc-53" style="edgeStyle=none;rounded=0;orthogonalLoop=1;jettySize=auto;html=1;entryX=0.25;entryY=1;entryDx=0;entryDy=0;fontSize=20;" parent="fodHKlVipyK6UHabS3Oc-1" source="fodHKlVipyK6UHabS3Oc-54" target="fodHKlVipyK6UHabS3Oc-43" edge="1"><mxGeometry relative="1" as="geometry"/></mxCell><mxCell id="fodHKlVipyK6UHabS3Oc-54" value="&lt;font style=&quot;font-size: 12px&quot;&gt;Protect Scotland App&lt;/font&gt;" style="pointerEvents=1;shadow=0;dashed=0;html=1;strokeColor=none;labelPosition=center;verticalLabelPosition=bottom;verticalAlign=top;align=center;shape=mxgraph.mscae.system_center.cloud_distribution_point;fontSize=20;fillColor=#808080;" parent="fodHKlVipyK6UHabS3Oc-1" vertex="1"><mxGeometry x="367.5" y="864.8199999999999" width="35" height="35" as="geometry"/></mxCell><mxCell id="fodHKlVipyK6UHabS3Oc-55" style="edgeStyle=none;rounded=0;orthogonalLoop=1;jettySize=auto;html=1;entryX=0.75;entryY=1;entryDx=0;entryDy=0;fontSize=20;" parent="fodHKlVipyK6UHabS3Oc-1" source="fodHKlVipyK6UHabS3Oc-56" target="fodHKlVipyK6UHabS3Oc-43" edge="1"><mxGeometry relative="1" as="geometry"/></mxCell><mxCell id="fodHKlVipyK6UHabS3Oc-56" value="&lt;font style=&quot;font-size: 12px&quot;&gt;Jersey COVID Alert&lt;/font&gt;" style="pointerEvents=1;shadow=0;dashed=0;html=1;strokeColor=none;labelPosition=center;verticalLabelPosition=bottom;verticalAlign=top;align=center;shape=mxgraph.mscae.system_center.cloud_distribution_point;fontSize=20;fillColor=#808080;" parent="fodHKlVipyK6UHabS3Oc-1" vertex="1"><mxGeometry x="535" y="864.8199999999999" width="35" height="35" as="geometry"/></mxCell><mxCell id="fodHKlVipyK6UHabS3Oc-57" style="edgeStyle=none;rounded=0;orthogonalLoop=1;jettySize=auto;html=1;entryX=0.5;entryY=1;entryDx=0;entryDy=0;fontSize=20;" parent="fodHKlVipyK6UHabS3Oc-1" source="fodHKlVipyK6UHabS3Oc-58" target="fodHKlVipyK6UHabS3Oc-43" edge="1"><mxGeometry relative="1" as="geometry"/></mxCell><mxCell id="fodHKlVipyK6UHabS3Oc-58" value="&lt;font style=&quot;font-size: 12px&quot;&gt;StopCOVID NI App&lt;/font&gt;" style="pointerEvents=1;shadow=0;dashed=0;html=1;strokeColor=none;labelPosition=center;verticalLabelPosition=bottom;verticalAlign=top;align=center;shape=mxgraph.mscae.system_center.cloud_distribution_point;fontSize=20;fillColor=#808080;" parent="fodHKlVipyK6UHabS3Oc-1" vertex="1"><mxGeometry x="456" y="843.8199999999999" width="35" height="35" as="geometry"/></mxCell><mxCell id="fodHKlVipyK6UHabS3Oc-59" style="edgeStyle=none;rounded=0;orthogonalLoop=1;jettySize=auto;html=1;entryX=1;entryY=0.75;entryDx=0;entryDy=0;fontSize=20;" parent="fodHKlVipyK6UHabS3Oc-1" source="fodHKlVipyK6UHabS3Oc-60" target="fodHKlVipyK6UHabS3Oc-43" edge="1"><mxGeometry relative="1" as="geometry"/></mxCell><mxCell id="fodHKlVipyK6UHabS3Oc-60" value="&lt;font style=&quot;font-size: 12px&quot;&gt;Gibraltar&lt;/font&gt;" style="pointerEvents=1;shadow=0;dashed=0;html=1;strokeColor=none;labelPosition=center;verticalLabelPosition=bottom;verticalAlign=top;align=center;shape=mxgraph.mscae.system_center.cloud_distribution_point;fontSize=20;fillColor=#808080;" parent="fodHKlVipyK6UHabS3Oc-1" vertex="1"><mxGeometry x="586.5" y="824.8199999999999" width="35" height="35" as="geometry"/></mxCell><mxCell id="fodHKlVipyK6UHabS3Oc-63" value="Mobile APIs" style="rounded=0;whiteSpace=wrap;html=1;fillColor=#d5e8d4;strokeColor=#82b366;fontSize=14;" parent="fodHKlVipyK6UHabS3Oc-1" vertex="1"><mxGeometry x="539" y="401.5" width="67.5" height="57" as="geometry"/></mxCell><mxCell id="fodHKlVipyK6UHabS3Oc-64" value="Connector and Export Services" style="rounded=0;whiteSpace=wrap;html=1;fillColor=#d5e8d4;strokeColor=#82b366;fontSize=14;" parent="fodHKlVipyK6UHabS3Oc-1" vertex="1"><mxGeometry x="539" y="472" width="149.5" height="60.5" as="geometry"/></mxCell><mxCell id="fodHKlVipyK6UHabS3Oc-65" value="External System APIs" style="rounded=0;whiteSpace=wrap;html=1;fillColor=#d5e8d4;strokeColor=#82b366;fontSize=14;" parent="fodHKlVipyK6UHabS3Oc-1" vertex="1"><mxGeometry x="617.5" y="401.5" width="71" height="57" as="geometry"/></mxCell><mxCell id="fodHKlVipyK6UHabS3Oc-66" style="edgeStyle=none;rounded=0;orthogonalLoop=1;jettySize=auto;html=1;" parent="fodHKlVipyK6UHabS3Oc-1" source="fodHKlVipyK6UHabS3Oc-67" target="fodHKlVipyK6UHabS3Oc-14" edge="1"><mxGeometry relative="1" as="geometry"><mxPoint x="686.5" y="313.5" as="targetPoint"/></mxGeometry></mxCell><mxCell id="fodHKlVipyK6UHabS3Oc-67" value="Postal District &lt;br&gt;Risk Level" style="rounded=0;whiteSpace=wrap;html=1;fillColor=#f5f5f5;strokeColor=#666666;fontColor=#333333;" parent="fodHKlVipyK6UHabS3Oc-1" vertex="1"><mxGeometry x="743" y="189.51" width="90" height="55" as="geometry"/></mxCell><mxCell id="fVhWrwYJ8Jam_pzhmITV-33" style="edgeStyle=none;rounded=0;orthogonalLoop=1;jettySize=auto;html=1;startArrow=none;startFill=0;endArrow=classic;endFill=1;fontSize=20;" parent="fodHKlVipyK6UHabS3Oc-1" source="fodHKlVipyK6UHabS3Oc-69" target="fVhWrwYJ8Jam_pzhmITV-17" edge="1"><mxGeometry relative="1" as="geometry"/></mxCell><UserObject label="JBC &lt;br&gt;Technical &lt;br&gt;Staff" link="https://confluence/pages/46566521/Runbook+Updating+risk+levels+per+postcode+area+-+automatic+every+two+hours" id="fodHKlVipyK6UHabS3Oc-69"><mxCell style="pointerEvents=1;shadow=0;dashed=0;html=1;strokeColor=none;labelPosition=center;verticalLabelPosition=bottom;verticalAlign=top;align=center;shape=mxgraph.mscae.intune.user_group;fontSize=12;fontColor=#808080;fillColor=#808080;" parent="fodHKlVipyK6UHabS3Oc-1" vertex="1"><mxGeometry x="903" y="35.63" width="50" height="37" as="geometry"/></mxCell></UserObject><mxCell id="fodHKlVipyK6UHabS3Oc-70" style="edgeStyle=none;rounded=0;orthogonalLoop=1;jettySize=auto;html=1;entryX=0.995;entryY=0.548;entryDx=0;entryDy=0;entryPerimeter=0;exitX=0;exitY=0.5;exitDx=0;exitDy=0;" parent="fodHKlVipyK6UHabS3Oc-1" source="jxuDQZtIKYb5tDD2cEzy-6" target="fodHKlVipyK6UHabS3Oc-14" edge="1"><mxGeometry relative="1" as="geometry"><mxPoint x="739" y="456.5" as="targetPoint"/></mxGeometry></mxCell><mxCell id="fodHKlVipyK6UHabS3Oc-71" value="NPEx (England)&amp;nbsp;&lt;br&gt;Test Results" style="rounded=0;whiteSpace=wrap;html=1;fillColor=#f5f5f5;strokeColor=#666666;fontColor=#333333;" parent="fodHKlVipyK6UHabS3Oc-1" vertex="1"><mxGeometry x="820" y="525.88" width="110" height="34.5" as="geometry"/></mxCell><mxCell id="fodHKlVipyK6UHabS3Oc-74" value="Fiorano (Wales)&lt;br&gt;Test Results" style="rounded=0;whiteSpace=wrap;html=1;fillColor=#f5f5f5;strokeColor=#666666;fontColor=#333333;" parent="fodHKlVipyK6UHabS3Oc-1" vertex="1"><mxGeometry x="820" y="565.38" width="110" height="34.5" as="geometry"/></mxCell><mxCell id="fodHKlVipyK6UHabS3Oc-76" value="BSA (England)&lt;br&gt;Notification Service&amp;nbsp;" style="rounded=0;whiteSpace=wrap;html=1;fillColor=#f5f5f5;strokeColor=#666666;fontColor=#333333;" parent="fodHKlVipyK6UHabS3Oc-1" vertex="1"><mxGeometry x="1019.25" y="623.5" width="110" height="34.25" as="geometry"/></mxCell><mxCell id="fodHKlVipyK6UHabS3Oc-79" value="Solution Scope" style="rounded=0;whiteSpace=wrap;html=1;fontColor=#333333;strokeColor=#FFB570;strokeWidth=3;fillColor=none;" parent="fodHKlVipyK6UHabS3Oc-1" vertex="1"><mxGeometry x="1311" y="554" width="119" height="38" as="geometry"/></mxCell><mxCell id="fodHKlVipyK6UHabS3Oc-80" value="GAEN &lt;br&gt;Framework" style="rounded=0;whiteSpace=wrap;html=1;fillColor=#f9f7ed;strokeColor=#36393d;fontColor=#000000;" parent="fodHKlVipyK6UHabS3Oc-1" vertex="1"><mxGeometry x="157" y="599.5" width="89" height="60" as="geometry"/></mxCell><mxCell id="fodHKlVipyK6UHabS3Oc-81" style="edgeStyle=none;rounded=0;orthogonalLoop=1;jettySize=auto;html=1;fontSize=24;fontColor=#FF0000;entryX=1;entryY=0.5;entryDx=0;entryDy=0;exitX=0;exitY=0.75;exitDx=0;exitDy=0;" parent="fodHKlVipyK6UHabS3Oc-1" source="fodHKlVipyK6UHabS3Oc-10" target="fodHKlVipyK6UHabS3Oc-80" edge="1"><mxGeometry relative="1" as="geometry"><mxPoint x="356.25" y="718.5" as="sourcePoint"/><mxPoint x="393" y="618.5" as="targetPoint"/></mxGeometry></mxCell><mxCell id="fodHKlVipyK6UHabS3Oc-10" value="EN Configuration and Algorithm" style="rounded=0;whiteSpace=wrap;html=1;strokeColor=#82b366;fontSize=14;verticalAlign=middle;fillColor=#d5e8d4;" parent="fodHKlVipyK6UHabS3Oc-1" vertex="1"><mxGeometry x="337.5" y="570.5" width="125" height="56" as="geometry"/></mxCell><mxCell id="QnwSWM_DAazWRKVrqEv1-0" style="rounded=0;orthogonalLoop=1;jettySize=auto;html=1;fontColor=#333333;exitX=0.75;exitY=0;exitDx=0;exitDy=0;" parent="fodHKlVipyK6UHabS3Oc-1" source="fodHKlVipyK6UHabS3Oc-4" target="jxuDQZtIKYb5tDD2cEzy-1" edge="1"><mxGeometry relative="1" as="geometry"><mxPoint x="483.75" y="383" as="sourcePoint"/><mxPoint x="467.8565000000003" y="315.91999999999985" as="targetPoint"/></mxGeometry></mxCell><mxCell id="QnwSWM_DAazWRKVrqEv1-2" value="" style="rounded=0;whiteSpace=wrap;html=1;fontColor=#333333;fontSize=20;verticalAlign=top;align=left;fillColor=none;strokeColor=#FFB570;strokeWidth=3;spacingLeft=3;" parent="fodHKlVipyK6UHabS3Oc-1" vertex="1"><mxGeometry x="370" y="163" width="140" height="120" as="geometry"/></mxCell><mxCell id="QnwSWM_DAazWRKVrqEv1-3" value="" style="edgeStyle=none;rounded=0;orthogonalLoop=1;jettySize=auto;html=1;fontSize=20;entryX=0.394;entryY=-0.006;entryDx=0;entryDy=0;entryPerimeter=0;" parent="fodHKlVipyK6UHabS3Oc-1" source="QnwSWM_DAazWRKVrqEv1-4" target="jxuDQZtIKYb5tDD2cEzy-1" edge="1"><mxGeometry relative="1" as="geometry"><mxPoint x="412.3493975903616" y="126" as="sourcePoint"/></mxGeometry></mxCell><mxCell id="QnwSWM_DAazWRKVrqEv1-4" value="App User" style="pointerEvents=1;shadow=0;dashed=0;html=1;strokeColor=none;labelPosition=center;verticalLabelPosition=bottom;verticalAlign=top;align=center;shape=mxgraph.mscae.intune.user_group;fontSize=12;fontColor=#808080;fillColor=#808080;" parent="fodHKlVipyK6UHabS3Oc-1" vertex="1"><mxGeometry x="530" y="36.75" width="50" height="37" as="geometry"/></mxCell><mxCell id="NdXptqWapQIYRM5oAKt2-0" style="edgeStyle=none;rounded=0;orthogonalLoop=1;jettySize=auto;html=1;exitX=1;exitY=0.5;exitDx=0;exitDy=0;entryX=0;entryY=0.5;entryDx=0;entryDy=0;startArrow=none;startFill=0;endArrow=classic;endFill=1;fontSize=20;" parent="fodHKlVipyK6UHabS3Oc-1" source="QnwSWM_DAazWRKVrqEv1-5" target="safbzq2gfHsDQoepRRFB-1" edge="1"><mxGeometry relative="1" as="geometry"/></mxCell><mxCell id="QnwSWM_DAazWRKVrqEv1-5" value="SIP Gateway&lt;br&gt;(England)&amp;nbsp;&amp;nbsp;&lt;br&gt;Web App&amp;nbsp;" style="rounded=0;whiteSpace=wrap;html=1;fillColor=#f5f5f5;strokeColor=#666666;fontColor=#333333;" parent="fodHKlVipyK6UHabS3Oc-1" vertex="1"><mxGeometry x="378.5" y="173" width="120" height="46" as="geometry"/></mxCell><mxCell id="QnwSWM_DAazWRKVrqEv1-6" value="SIP Gateway&lt;br&gt;(England)&lt;br&gt;Infrastructure" style="rounded=0;whiteSpace=wrap;html=1;fillColor=#f5f5f5;strokeColor=#666666;fontColor=#333333;" parent="fodHKlVipyK6UHabS3Oc-1" vertex="1"><mxGeometry x="378" y="224" width="120.5" height="51" as="geometry"/></mxCell><mxCell id="RZM8Uojupv5k_8dMfFqo-1" style="rounded=0;orthogonalLoop=1;jettySize=auto;html=1;" parent="fodHKlVipyK6UHabS3Oc-1" source="jxuDQZtIKYb5tDD2cEzy-1" target="fodHKlVipyK6UHabS3Oc-14" edge="1"><mxGeometry relative="1" as="geometry"><mxPoint x="546.6854838709683" y="317" as="sourcePoint"/></mxGeometry></mxCell><mxCell id="mDT_LmEJNA9OEM6lDlEC-0" value="Venue Alerts Web App" style="rounded=0;whiteSpace=wrap;html=1;fillColor=#f5f5f5;strokeColor=#666666;fontColor=#333333;" parent="fodHKlVipyK6UHabS3Oc-1" vertex="1"><mxGeometry x="1050.5" y="236.69" width="80" height="31.62" as="geometry"/></mxCell><mxCell id="mDT_LmEJNA9OEM6lDlEC-2" style="rounded=0;orthogonalLoop=1;jettySize=auto;html=1;" parent="fodHKlVipyK6UHabS3Oc-1" source="mDT_LmEJNA9OEM6lDlEC-18" target="fodHKlVipyK6UHabS3Oc-3" edge="1"><mxGeometry relative="1" as="geometry"/></mxCell><mxCell id="mDT_LmEJNA9OEM6lDlEC-19" style="edgeStyle=none;rounded=0;orthogonalLoop=1;jettySize=auto;html=1;" parent="fodHKlVipyK6UHabS3Oc-1" source="fVhWrwYJ8Jam_pzhmITV-16" target="mDT_LmEJNA9OEM6lDlEC-18" edge="1"><mxGeometry relative="1" as="geometry"><mxPoint x="992.6842105263154" y="108" as="sourcePoint"/></mxGeometry></mxCell><mxCell id="mDT_LmEJNA9OEM6lDlEC-1" value="NWIS&lt;br&gt;(Wales)" style="rounded=0;whiteSpace=wrap;html=1;fillColor=#f5f5f5;strokeColor=#666666;fontColor=#333333;" parent="fodHKlVipyK6UHabS3Oc-1" vertex="1"><mxGeometry x="1100" y="121.88" width="76" height="36.75" as="geometry"/></mxCell><mxCell id="mDT_LmEJNA9OEM6lDlEC-5" value="AAE&lt;br&gt;Data Science&lt;br&gt;Pipelines" style="rounded=0;whiteSpace=wrap;html=1;fillColor=#f5f5f5;strokeColor=#666666;fontColor=#333333;" parent="fodHKlVipyK6UHabS3Oc-1" vertex="1"><mxGeometry x="1017" y="770.07" width="100" height="45.5" as="geometry"/></mxCell><mxCell id="mDT_LmEJNA9OEM6lDlEC-6" value="Datasets&amp;nbsp;&lt;br&gt;Other Sources&lt;br&gt;(S3)" style="rounded=0;whiteSpace=wrap;html=1;fillColor=#f5f5f5;strokeColor=#666666;fontColor=#333333;" parent="fodHKlVipyK6UHabS3Oc-1" vertex="1"><mxGeometry x="857.25" y="772.94" width="106" height="43.5" as="geometry"/></mxCell><UserObject label="Quicksight&lt;br&gt;Dashboards" link="https://confluence/pages/32916398/App+System+Analytics" id="mDT_LmEJNA9OEM6lDlEC-7"><mxCell style="rounded=0;whiteSpace=wrap;html=1;fillColor=#f5f5f5;strokeColor=#666666;fontColor=#333333;" parent="fodHKlVipyK6UHabS3Oc-1" vertex="1"><mxGeometry x="744" y="821.94" width="106" height="43" as="geometry"/></mxCell></UserObject><mxCell id="mDT_LmEJNA9OEM6lDlEC-9" style="edgeStyle=none;rounded=0;orthogonalLoop=1;jettySize=auto;html=1;" parent="fodHKlVipyK6UHabS3Oc-1" source="mDT_LmEJNA9OEM6lDlEC-8" target="fodHKlVipyK6UHabS3Oc-52" edge="1"><mxGeometry relative="1" as="geometry"/></mxCell><UserObject label="C19 App&lt;br&gt;Statistics" id="mDT_LmEJNA9OEM6lDlEC-8"><mxCell style="rounded=0;whiteSpace=wrap;html=1;fillColor=#f5f5f5;fontColor=#333333;strokeColor=#FFB570;strokeWidth=4;" parent="fodHKlVipyK6UHabS3Oc-1" vertex="1"><mxGeometry x="1048.25" y="911.85" width="63.75" height="44.25" as="geometry"/></mxCell></UserObject><UserObject label="EDGE&lt;br&gt;Analytics" link="https://confluence/pages/32916398/App+System+Analytics" id="mDT_LmEJNA9OEM6lDlEC-12"><mxCell style="rounded=0;whiteSpace=wrap;html=1;fillColor=#f5f5f5;strokeColor=#666666;fontColor=#333333;" parent="fodHKlVipyK6UHabS3Oc-1" vertex="1"><mxGeometry x="887" y="898.82" width="100" height="44.25" as="geometry"/></mxCell></UserObject><mxCell id="mDT_LmEJNA9OEM6lDlEC-16" value="Analytics Infrastructure" style="rounded=0;whiteSpace=wrap;html=1;fillColor=#f5f5f5;strokeColor=#666666;fontColor=#333333;" parent="fodHKlVipyK6UHabS3Oc-1" vertex="1"><mxGeometry x="744" y="772.94" width="106" height="43.63" as="geometry"/></mxCell><mxCell id="mDT_LmEJNA9OEM6lDlEC-18" value="Case Venue&lt;br&gt;Coincidence" style="rounded=0;whiteSpace=wrap;html=1;fillColor=#f5f5f5;strokeColor=#666666;fontColor=#333333;" parent="fodHKlVipyK6UHabS3Oc-1" vertex="1"><mxGeometry x="840" y="189.51" width="71.5" height="54.5" as="geometry"/></mxCell><mxCell id="fodHKlVipyK6UHabS3Oc-72" value="PHW (Wales)&lt;br&gt;Notification Service&amp;nbsp;" style="rounded=0;whiteSpace=wrap;html=1;fillColor=#f5f5f5;strokeColor=#666666;fontColor=#333333;" parent="fodHKlVipyK6UHabS3Oc-1" vertex="1"><mxGeometry x="1019.25" y="663" width="110" height="30" as="geometry"/></mxCell><mxCell id="VZHW64wO5VbjyCQjtFWW-4" style="edgeStyle=none;rounded=0;orthogonalLoop=1;jettySize=auto;html=1;entryX=0.5;entryY=0;entryDx=0;entryDy=0;startArrow=none;startFill=0;exitX=0.5;exitY=1;exitDx=0;exitDy=0;" parent="fodHKlVipyK6UHabS3Oc-1" source="q7Eqj-QGK71trlirV1hW-0" target="jxuDQZtIKYb5tDD2cEzy-6" edge="1"><mxGeometry relative="1" as="geometry"><mxPoint x="863.3383977900553" y="479.13" as="sourcePoint"/></mxGeometry></mxCell><mxCell id="q7Eqj-QGK71trlirV1hW-0" value="Test Booking" style="rounded=0;whiteSpace=wrap;html=1;fontColor=#333333;fontSize=20;verticalAlign=top;align=left;fillColor=none;strokeWidth=1;spacingLeft=3;" parent="fodHKlVipyK6UHabS3Oc-1" vertex="1"><mxGeometry x="794.25" y="397.63" width="158.75" height="70" as="geometry"/></mxCell><mxCell id="VZHW64wO5VbjyCQjtFWW-0" style="edgeStyle=none;rounded=0;orthogonalLoop=1;jettySize=auto;html=1;entryX=0;entryY=0.5;entryDx=0;entryDy=0;exitX=0.995;exitY=0.405;exitDx=0;exitDy=0;exitPerimeter=0;" parent="fodHKlVipyK6UHabS3Oc-1" source="fodHKlVipyK6UHabS3Oc-14" target="q7Eqj-QGK71trlirV1hW-0" edge="1"><mxGeometry relative="1" as="geometry"><mxPoint x="732.029" y="567.0919999999996" as="targetPoint"/><mxPoint x="720" y="482" as="sourcePoint"/></mxGeometry></mxCell><mxCell id="KIFlcMYG95Kor8AZ4rej-0" value="Virology Website&lt;br&gt;(England/Wales)" style="rounded=0;whiteSpace=wrap;html=1;fillColor=#f5f5f5;strokeColor=#666666;fontColor=#333333;" parent="fodHKlVipyK6UHabS3Oc-1" vertex="1"><mxGeometry x="820" y="428.13" width="110" height="34.5" as="geometry"/></mxCell><mxCell id="xcfaa9lEfM26dsPhkLc1-5" style="edgeStyle=none;rounded=0;orthogonalLoop=1;jettySize=auto;html=1;entryX=1;entryY=0.5;entryDx=0;entryDy=0;startArrow=none;startFill=0;endArrow=classic;endFill=1;" parent="fodHKlVipyK6UHabS3Oc-1" source="xcfaa9lEfM26dsPhkLc1-1" target="q7Eqj-QGK71trlirV1hW-0" edge="1"><mxGeometry relative="1" as="geometry"/></mxCell><mxCell id="xcfaa9lEfM26dsPhkLc1-1" value="App User or&lt;br&gt;Non-App User" style="pointerEvents=1;shadow=0;dashed=0;html=1;strokeColor=none;labelPosition=center;verticalLabelPosition=bottom;verticalAlign=top;align=center;shape=mxgraph.mscae.intune.user_group;fontSize=12;fontColor=#808080;fillColor=#808080;" parent="fodHKlVipyK6UHabS3Oc-1" vertex="1"><mxGeometry x="1120" y="472" width="50" height="37" as="geometry"/></mxCell><mxCell id="safbzq2gfHsDQoepRRFB-1" value="SIP Gateway &lt;br&gt;(Wales)&lt;br&gt;Website&amp;nbsp;" style="rounded=0;whiteSpace=wrap;html=1;fillColor=#f5f5f5;strokeColor=#666666;fontColor=#333333;" parent="fodHKlVipyK6UHabS3Oc-1" vertex="1"><mxGeometry x="529" y="173" width="120" height="46" as="geometry"/></mxCell><mxCell id="fodHKlVipyK6UHabS3Oc-13" style="rounded=0;orthogonalLoop=1;jettySize=auto;html=1;exitX=0.668;exitY=1.004;exitDx=0;exitDy=0;exitPerimeter=0;entryX=0.5;entryY=0;entryDx=0;entryDy=0;" parent="fodHKlVipyK6UHabS3Oc-1" source="fodHKlVipyK6UHabS3Oc-14" target="fodHKlVipyK6UHabS3Oc-28" edge="1"><mxGeometry relative="1" as="geometry"/></mxCell><mxCell id="zXeJOrKsGjYzrKHlcoPI-0" style="edgeStyle=none;rounded=0;orthogonalLoop=1;jettySize=auto;html=1;exitX=0;exitY=0.5;exitDx=0;exitDy=0;exitPerimeter=0;startArrow=none;startFill=0;endArrow=classic;endFill=1;" parent="fodHKlVipyK6UHabS3Oc-1" source="fodHKlVipyK6UHabS3Oc-56" target="fodHKlVipyK6UHabS3Oc-56" edge="1"><mxGeometry relative="1" as="geometry"/></mxCell><mxCell id="fVhWrwYJ8Jam_pzhmITV-0" value="CTAS/ITS&lt;br&gt;(England)" style="rounded=0;whiteSpace=wrap;html=1;fillColor=#f5f5f5;strokeColor=#666666;fontColor=#333333;" parent="fodHKlVipyK6UHabS3Oc-1" vertex="1"><mxGeometry x="1008" y="121.88" width="76" height="36.75" as="geometry"/></mxCell><mxCell id="fVhWrwYJ8Jam_pzhmITV-16" value="Contact Tracing" style="rounded=0;whiteSpace=wrap;html=1;fontColor=#333333;fontSize=20;verticalAlign=top;align=left;fillColor=none;strokeWidth=1;spacingLeft=3;" parent="fodHKlVipyK6UHabS3Oc-1" vertex="1"><mxGeometry x="990" y="81.88" width="201" height="90" as="geometry"/></mxCell><mxCell id="fVhWrwYJ8Jam_pzhmITV-31" style="edgeStyle=none;rounded=0;orthogonalLoop=1;jettySize=auto;html=1;startArrow=none;startFill=0;endArrow=classic;endFill=1;fontSize=20;" parent="fodHKlVipyK6UHabS3Oc-1" source="fVhWrwYJ8Jam_pzhmITV-25" target="fVhWrwYJ8Jam_pzhmITV-16" edge="1"><mxGeometry relative="1" as="geometry"/></mxCell><mxCell id="fVhWrwYJ8Jam_pzhmITV-25" value="Contact Tracer" style="pointerEvents=1;shadow=0;dashed=0;html=1;strokeColor=none;labelPosition=center;verticalLabelPosition=bottom;verticalAlign=top;align=center;shape=mxgraph.mscae.intune.user_group;fontSize=12;fontColor=#808080;fillColor=#808080;" parent="fodHKlVipyK6UHabS3Oc-1" vertex="1"><mxGeometry x="1227" y="35.63" width="50" height="37" as="geometry"/></mxCell><mxCell id="fVhWrwYJ8Jam_pzhmITV-32" style="edgeStyle=none;rounded=0;orthogonalLoop=1;jettySize=auto;html=1;startArrow=none;startFill=0;endArrow=classic;endFill=1;fontSize=20;" parent="fodHKlVipyK6UHabS3Oc-1" source="fVhWrwYJ8Jam_pzhmITV-27" target="mDT_LmEJNA9OEM6lDlEC-0" edge="1"><mxGeometry relative="1" as="geometry"/></mxCell><mxCell id="fVhWrwYJ8Jam_pzhmITV-27" value="Approver" style="pointerEvents=1;shadow=0;dashed=0;html=1;strokeColor=none;labelPosition=center;verticalLabelPosition=bottom;verticalAlign=top;align=center;shape=mxgraph.mscae.intune.user_group;fontSize=12;fontColor=#808080;fillColor=#808080;" parent="fodHKlVipyK6UHabS3Oc-1" vertex="1"><mxGeometry x="1227" y="124.88" width="50" height="37" as="geometry"/></mxCell><mxCell id="fVhWrwYJ8Jam_pzhmITV-35" value="Venues&amp;nbsp;" style="rounded=0;whiteSpace=wrap;html=1;fillColor=#f5f5f5;strokeColor=#666666;fontColor=#333333;" parent="fodHKlVipyK6UHabS3Oc-1" vertex="1"><mxGeometry x="1147" y="275" width="80" height="28.38" as="geometry"/></mxCell><mxCell id="NdXptqWapQIYRM5oAKt2-4" value="Primary&lt;br&gt;Content" style="rounded=0;whiteSpace=wrap;html=1;fillColor=#f5f5f5;strokeColor=#666666;fontColor=#333333;" parent="fodHKlVipyK6UHabS3Oc-1" vertex="1"><mxGeometry x="1120" y="910.6" width="92" height="45.5" as="geometry"/></mxCell></root></mxGraphModel></diagram><diagram name="sys-arch" id="MIizSha0O3fvtMK0PCOD"><mxGraphModel dx="1980" dy="1436" grid="0" gridSize="10" guides="1" tooltips="1" connect="1" arrows="1" fold="1" page="0" pageScale="1" pageWidth="1654" pageHeight="1169" math="0" shadow="0"><root><mxCell id="kiVt3S2lOiR5hsIp-Kmd-0"/><mxCell id="kiVt3S2lOiR5hsIp-Kmd-1" parent="kiVt3S2lOiR5hsIp-Kmd-0"/><mxCell id="gddFXcormWA68JvpZiPz-0" value="" style="endArrow=none;dashed=1;html=1;strokeWidth=3;strokeColor=#B3B3B3;" parent="kiVt3S2lOiR5hsIp-Kmd-1" edge="1"><mxGeometry width="50" height="50" relative="1" as="geometry"><mxPoint x="-397" y="-344" as="sourcePoint"/><mxPoint x="-397" y="698" as="targetPoint"/></mxGeometry></mxCell><mxCell id="v7NWKqyv9IXQPwMrkkju-1" value="NHS CV19 Cloud&lt;br style=&quot;font-size: 14px&quot;&gt;[AWS Cloud-Native]" style="whiteSpace=wrap;html=1;fontColor=#000000;strokeColor=#000000;align=right;verticalAlign=top;spacingRight=6;spacing=0;fontSize=14;fontStyle=1;spacingTop=5;" parent="kiVt3S2lOiR5hsIp-Kmd-1" vertex="1"><mxGeometry x="135" y="-152.37" width="377" height="1191.37" as="geometry"/></mxCell><mxCell id="eq-pwSev9H0Bq-plpGlM-3" value="&lt;span&gt;&lt;br&gt;&lt;/span&gt;" style="whiteSpace=wrap;html=1;strokeColor=#000000;fontColor=#000000;fontStyle=0;dashed=1;verticalAlign=top;fillColor=none;" parent="kiVt3S2lOiR5hsIp-Kmd-1" vertex="1"><mxGeometry x="792.49" y="204.8" width="285.31" height="165.53" as="geometry"/></mxCell><mxCell id="eq-pwSev9H0Bq-plpGlM-13" value="&lt;span&gt;Citizen Notification&lt;br&gt;&lt;/span&gt;" style="whiteSpace=wrap;html=1;strokeColor=#000000;fontColor=#000000;fontStyle=0;dashed=1;verticalAlign=top;fillColor=none;" parent="kiVt3S2lOiR5hsIp-Kmd-1" vertex="1"><mxGeometry x="827.24" y="639.06" width="198.31" height="98.38" as="geometry"/></mxCell><mxCell id="kiVt3S2lOiR5hsIp-Kmd-3" value="" style="rounded=0;whiteSpace=wrap;html=1;strokeColor=#999999;align=left;fillColor=none;strokeWidth=1;" parent="kiVt3S2lOiR5hsIp-Kmd-1" vertex="1"><mxGeometry x="1181" y="403.56000000000006" width="253" height="459.03" as="geometry"/></mxCell><mxCell id="kiVt3S2lOiR5hsIp-Kmd-4" value="" style="endArrow=none;dashed=1;html=1;strokeWidth=3;strokeColor=#B3B3B3;" parent="kiVt3S2lOiR5hsIp-Kmd-1" edge="1"><mxGeometry width="50" height="50" relative="1" as="geometry"><mxPoint x="31" y="925.27" as="sourcePoint"/><mxPoint x="31" y="-321.73" as="targetPoint"/></mxGeometry></mxCell><mxCell id="kiVt3S2lOiR5hsIp-Kmd-5" style="edgeStyle=none;rounded=0;orthogonalLoop=1;jettySize=auto;html=1;exitX=0;exitY=0.5;exitDx=0;exitDy=0;entryX=1;entryY=0.5;entryDx=0;entryDy=0;" parent="kiVt3S2lOiR5hsIp-Kmd-1" source="kiVt3S2lOiR5hsIp-Kmd-7" target="kiVt3S2lOiR5hsIp-Kmd-35" edge="1"><mxGeometry relative="1" as="geometry"/></mxCell><mxCell id="kiVt3S2lOiR5hsIp-Kmd-6" value="if ctaToken received from website:&lt;br&gt;upload&amp;nbsp;test results" style="edgeLabel;html=1;align=center;verticalAlign=middle;resizable=0;points=[];" parent="kiVt3S2lOiR5hsIp-Kmd-5" vertex="1" connectable="0"><mxGeometry x="0.2805" relative="1" as="geometry"><mxPoint x="23.72" y="5.9999999999999964" as="offset"/></mxGeometry></mxCell><mxCell id="kiVt3S2lOiR5hsIp-Kmd-7" value="&lt;span&gt;Virology Test Labs&lt;br&gt;&lt;/span&gt;" style="whiteSpace=wrap;html=1;strokeColor=#000000;fontColor=#000000;fontStyle=0;dashed=1;verticalAlign=top;" parent="kiVt3S2lOiR5hsIp-Kmd-1" vertex="1"><mxGeometry x="755.23" y="512.9599999999999" width="233" height="101.14" as="geometry"/></mxCell><mxCell id="kiVt3S2lOiR5hsIp-Kmd-8" value="" style="endArrow=classic;html=1;fontSize=20;fontColor=#B3B3B3;" parent="kiVt3S2lOiR5hsIp-Kmd-1" edge="1"><mxGeometry width="50" height="50" relative="1" as="geometry"><mxPoint x="1201.5" y="446.05000000000007" as="sourcePoint"/><mxPoint x="1299.5" y="446.05000000000007" as="targetPoint"/></mxGeometry></mxCell><mxCell id="kiVt3S2lOiR5hsIp-Kmd-9" value="dependency" style="edgeLabel;html=1;align=center;verticalAlign=middle;resizable=0;points=[];" parent="kiVt3S2lOiR5hsIp-Kmd-8" vertex="1" connectable="0"><mxGeometry x="-0.8068" y="3" relative="1" as="geometry"><mxPoint x="39" y="-7" as="offset"/></mxGeometry></mxCell><mxCell id="kiVt3S2lOiR5hsIp-Kmd-10" value="Keys" style="text;html=1;strokeColor=none;fillColor=none;align=left;verticalAlign=middle;whiteSpace=wrap;rounded=0;fontSize=20;fontColor=#000000;" parent="kiVt3S2lOiR5hsIp-Kmd-1" vertex="1"><mxGeometry x="1183" y="368.5100000000001" width="190" height="20" as="geometry"/></mxCell><mxCell id="kiVt3S2lOiR5hsIp-Kmd-12" value="" style="pointerEvents=1;dashed=0;html=1;strokeColor=none;fillColor=#4D4D4D;labelPosition=center;verticalLabelPosition=bottom;verticalAlign=top;outlineConnect=0;align=center;shape=mxgraph.office.devices.laptop;fontColor=#000000;gradientColor=none;" parent="kiVt3S2lOiR5hsIp-Kmd-1" vertex="1"><mxGeometry x="-346" y="853.9999999999999" width="40" height="30" as="geometry"/></mxCell><mxCell id="kiVt3S2lOiR5hsIp-Kmd-13" value="England/Wales&lt;br&gt;Data for High-risk &lt;br&gt;Postal Districts" style="whiteSpace=wrap;html=1;strokeColor=#23445d;fontStyle=0;fillColor=#bac8d3;" parent="kiVt3S2lOiR5hsIp-Kmd-1" vertex="1"><mxGeometry x="927.8000000000002" y="234.7999999999999" width="115" height="46.88" as="geometry"/></mxCell><mxCell id="kiVt3S2lOiR5hsIp-Kmd-15" value="" style="endArrow=none;dashed=1;html=1;strokeWidth=3;strokeColor=#B3B3B3;" parent="kiVt3S2lOiR5hsIp-Kmd-1" edge="1"><mxGeometry width="50" height="50" relative="1" as="geometry"><mxPoint x="616" y="929" as="sourcePoint"/><mxPoint x="616" y="-345.77" as="targetPoint"/></mxGeometry></mxCell><mxCell id="kiVt3S2lOiR5hsIp-Kmd-16" value="Component&lt;br&gt;[Technology]" style="whiteSpace=wrap;html=1;" parent="kiVt3S2lOiR5hsIp-Kmd-1" vertex="1"><mxGeometry x="1200.5" y="522.2600000000001" width="100" height="43" as="geometry"/></mxCell><mxCell id="kiVt3S2lOiR5hsIp-Kmd-18" value="APIs and Cloud Services (Backend)" style="text;html=1;strokeColor=none;fillColor=none;align=center;verticalAlign=middle;whiteSpace=wrap;rounded=0;fontSize=27;fontColor=#B3B3B3;" parent="kiVt3S2lOiR5hsIp-Kmd-1" vertex="1"><mxGeometry x="141.16" y="-394" width="265" height="20" as="geometry"/></mxCell><mxCell id="kiVt3S2lOiR5hsIp-Kmd-22" value="&lt;span&gt;NHS CV19 System &lt;br&gt;Operations&amp;nbsp;&lt;br&gt;[AWS, Web]&lt;/span&gt;" style="whiteSpace=wrap;html=1;fontSize=14;fontStyle=1;spacing=0;spacingRight=6;verticalAlign=top;spacingTop=5;align=left;spacingLeft=6;" parent="kiVt3S2lOiR5hsIp-Kmd-1" vertex="1"><mxGeometry x="-264" y="776.54" width="211.81" height="241" as="geometry"/></mxCell><mxCell id="kiVt3S2lOiR5hsIp-Kmd-24" value="Distribution/&lt;br&gt;Diagnosis Key" style="html=1;fontColor=#000000;strokeColor=#0e8088;fillColor=#b0e3e6;labelPosition=right;verticalLabelPosition=middle;align=left;verticalAlign=middle;spacingRight=0;spacingLeft=5;" parent="kiVt3S2lOiR5hsIp-Kmd-1" vertex="1"><mxGeometry x="123.49" y="36.45" width="25.01" height="26.63" as="geometry"/></mxCell><mxCell id="kiVt3S2lOiR5hsIp-Kmd-33" value="order test" style="edgeStyle=none;rounded=0;orthogonalLoop=1;jettySize=auto;html=1;exitX=0;exitY=0.5;exitDx=0;exitDy=0;entryX=1;entryY=0.5;entryDx=0;entryDy=0;" parent="kiVt3S2lOiR5hsIp-Kmd-1" source="kiVt3S2lOiR5hsIp-Kmd-106" target="eq-pwSev9H0Bq-plpGlM-20" edge="1"><mxGeometry relative="1" as="geometry"><mxPoint x="-378.07000000000016" y="156.24499999999992" as="targetPoint"/></mxGeometry></mxCell><mxCell id="kiVt3S2lOiR5hsIp-Kmd-35" value="Upload/&lt;br&gt;Test Lab Results&lt;br&gt;(v1 &amp;amp; v2)" style="html=1;strokeColor=#0E8088;fillColor=#B0E3E6;labelPosition=left;verticalLabelPosition=middle;align=right;verticalAlign=middle;spacingRight=5;" parent="kiVt3S2lOiR5hsIp-Kmd-1" vertex="1"><mxGeometry x="498.99" y="580.8299999999999" width="25" height="25" as="geometry"/></mxCell><mxCell id="kiVt3S2lOiR5hsIp-Kmd-36" style="edgeStyle=none;rounded=0;orthogonalLoop=1;jettySize=auto;html=1;entryX=0;entryY=0.5;entryDx=0;entryDy=0;exitX=1;exitY=0.5;exitDx=0;exitDy=0;" parent="kiVt3S2lOiR5hsIp-Kmd-1" edge="1"><mxGeometry relative="1" as="geometry"><mxPoint x="103.13999999999987" y="407.01999999999975" as="targetPoint"/></mxGeometry></mxCell><mxCell id="kiVt3S2lOiR5hsIp-Kmd-37" value="send app analytics" style="edgeLabel;html=1;align=center;verticalAlign=middle;resizable=0;points=[];" parent="kiVt3S2lOiR5hsIp-Kmd-36" vertex="1" connectable="0"><mxGeometry x="0.3503" relative="1" as="geometry"><mxPoint x="-47.87999999999999" y="-9.330000000000002" as="offset"/></mxGeometry></mxCell><mxCell id="kiVt3S2lOiR5hsIp-Kmd-38" value="&lt;meta charset=&quot;utf-8&quot;&gt;&lt;span style=&quot;color: rgb(0, 0, 0); font-family: helvetica; font-size: 11px; font-style: normal; font-weight: 400; letter-spacing: normal; text-align: center; text-indent: 0px; text-transform: none; word-spacing: 0px; background-color: rgb(255, 255, 255); display: inline; float: none;&quot;&gt;poll test result&lt;/span&gt;" style="edgeStyle=none;rounded=0;orthogonalLoop=1;jettySize=auto;html=1;exitX=1;exitY=0.5;exitDx=0;exitDy=0;entryX=0;entryY=0.5;entryDx=0;entryDy=0;" parent="kiVt3S2lOiR5hsIp-Kmd-1" edge="1"><mxGeometry relative="1" as="geometry"><mxPoint x="112.67000000000007" y="124.70499999999993" as="targetPoint"/></mxGeometry></mxCell><mxCell id="kiVt3S2lOiR5hsIp-Kmd-40" value="NHS CV19 App&lt;br style=&quot;font-size: 14px;&quot;&gt;[iOS, Android]" style="whiteSpace=wrap;html=1;fontColor=#000000;strokeColor=#000000;align=left;verticalAlign=top;spacingRight=6;spacing=0;fontSize=14;fontStyle=1;spacingTop=5;spacingLeft=6;" parent="kiVt3S2lOiR5hsIp-Kmd-1" vertex="1"><mxGeometry x="-324" y="-263" width="272" height="961" as="geometry"/></mxCell><mxCell id="kiVt3S2lOiR5hsIp-Kmd-41" value="UK data sources and analytics" style="rounded=0;whiteSpace=wrap;html=1;fillColor=#bac8d3;strokeColor=#23445d;" parent="kiVt3S2lOiR5hsIp-Kmd-1" vertex="1"><mxGeometry x="872.9800000000001" y="936" width="88" height="60" as="geometry"/></mxCell><mxCell id="kiVt3S2lOiR5hsIp-Kmd-50" value="Organisation" style="whiteSpace=wrap;html=1;rounded=0;strokeColor=#23445d;fillColor=#bac8d3;" parent="kiVt3S2lOiR5hsIp-Kmd-1" vertex="1"><mxGeometry x="1200.5" y="681.5900000000001" width="104" height="43" as="geometry"/></mxCell><mxCell id="kiVt3S2lOiR5hsIp-Kmd-51" value="Upload/&lt;br&gt;Postal District Risk Levels" style="html=1;strokeColor=#0E8088;fillColor=#B0E3E6;labelPosition=left;verticalLabelPosition=middle;align=right;verticalAlign=middle;spacingRight=5;" parent="kiVt3S2lOiR5hsIp-Kmd-1" vertex="1"><mxGeometry x="499.99" y="188.30999999999992" width="25" height="25" as="geometry"/></mxCell><mxCell id="kiVt3S2lOiR5hsIp-Kmd-54" value="Symptoms Data" style="whiteSpace=wrap;html=1;strokeColor=#0E8088;fillColor=#B0E3E6;labelPosition=left;verticalLabelPosition=middle;align=right;verticalAlign=middle;spacingRight=5;" parent="kiVt3S2lOiR5hsIp-Kmd-1" vertex="1"><mxGeometry x="499.13" y="287.36" width="25" height="25" as="geometry"/></mxCell><mxCell id="_n_Tzm7SmgrRMgYOmNy--3" style="rounded=0;orthogonalLoop=1;jettySize=auto;html=1;entryX=0;entryY=0.5;entryDx=0;entryDy=0;" parent="kiVt3S2lOiR5hsIp-Kmd-1" source="kiVt3S2lOiR5hsIp-Kmd-61" target="2d_QCjYA2E_OFU-nd2_z-1" edge="1"><mxGeometry relative="1" as="geometry"/></mxCell><mxCell id="kiVt3S2lOiR5hsIp-Kmd-61" value="poll&amp;nbsp; configuration" style="whiteSpace=wrap;html=1;fontColor=#000000;strokeColor=#0e8088;fillColor=#b0e3e6;spacingRight=5;labelPosition=left;verticalLabelPosition=middle;align=right;verticalAlign=middle;" parent="kiVt3S2lOiR5hsIp-Kmd-1" vertex="1"><mxGeometry x="-64.85" y="-52.999999999999986" width="25" height="25" as="geometry"/></mxCell><mxCell id="kiVt3S2lOiR5hsIp-Kmd-64" value="" style="rounded=0;whiteSpace=wrap;html=1;fontColor=#999999;" parent="kiVt3S2lOiR5hsIp-Kmd-1" vertex="1"><mxGeometry x="1293.5" y="534.2600000000001" width="21" height="19" as="geometry"/></mxCell><mxCell id="kiVt3S2lOiR5hsIp-Kmd-65" value="&lt;div&gt;&lt;span&gt;&lt;font color=&quot;#000000&quot; face=&quot;helvetica&quot;&gt;Port &lt;br&gt;(modular point of interaction)&lt;/font&gt;&lt;/span&gt;&lt;/div&gt;" style="text;whiteSpace=wrap;html=1;fontColor=#999999;align=left;" parent="kiVt3S2lOiR5hsIp-Kmd-1" vertex="1"><mxGeometry x="1319.5" y="529.0300000000001" width="87" height="42" as="geometry"/></mxCell><mxCell id="kiVt3S2lOiR5hsIp-Kmd-66" value="&lt;span&gt;ConfigStore&lt;br&gt;&lt;/span&gt;" style="whiteSpace=wrap;html=1;strokeColor=#0e8088;fontStyle=0;fillColor=#b0e3e6;labelPosition=right;verticalLabelPosition=middle;align=left;verticalAlign=middle;spacingLeft=5;" parent="kiVt3S2lOiR5hsIp-Kmd-1" vertex="1"><mxGeometry x="120" y="838.1" width="24.84" height="23.42" as="geometry"/></mxCell><mxCell id="kiVt3S2lOiR5hsIp-Kmd-67" value="Exists or implementation&lt;br&gt;in progress" style="whiteSpace=wrap;html=1;fillColor=#b0e3e6;strokeColor=#0e8088;" parent="kiVt3S2lOiR5hsIp-Kmd-1" vertex="1"><mxGeometry x="1200.5" y="600.0300000000002" width="88" height="43" as="geometry"/></mxCell><mxCell id="kiVt3S2lOiR5hsIp-Kmd-68" value="&lt;font color=&quot;#000000&quot;&gt;Sys Admin&lt;/font&gt;" style="pointerEvents=1;shadow=0;dashed=0;html=1;strokeColor=#314354;labelPosition=center;verticalLabelPosition=bottom;verticalAlign=top;align=center;fillColor=#647687;shape=mxgraph.mscae.intune.user_group;fontColor=#ffffff;" parent="kiVt3S2lOiR5hsIp-Kmd-1" vertex="1"><mxGeometry x="-355" y="907.9200000000001" width="50" height="36.89" as="geometry"/></mxCell><mxCell id="kiVt3S2lOiR5hsIp-Kmd-69" style="edgeStyle=none;rounded=0;orthogonalLoop=1;jettySize=auto;html=1;entryX=0;entryY=0.5;entryDx=0;entryDy=0;exitX=1;exitY=0.5;exitDx=0;exitDy=0;" parent="kiVt3S2lOiR5hsIp-Kmd-1" source="v7NWKqyv9IXQPwMrkkju-6" target="kiVt3S2lOiR5hsIp-Kmd-66" edge="1"><mxGeometry relative="1" as="geometry"><mxPoint x="-190" y="867.15" as="sourcePoint"/><mxPoint x="93" y="851.15" as="targetPoint"/></mxGeometry></mxCell><mxCell id="kiVt3S2lOiR5hsIp-Kmd-70" value="switch &lt;br&gt;circuit breaker" style="edgeLabel;html=1;align=center;verticalAlign=middle;resizable=0;points=[];" parent="kiVt3S2lOiR5hsIp-Kmd-69" vertex="1" connectable="0"><mxGeometry x="-0.14" relative="1" as="geometry"><mxPoint x="-4.38" y="-12.450000000000001" as="offset"/></mxGeometry></mxCell><mxCell id="kiVt3S2lOiR5hsIp-Kmd-71" value="enter &lt;br&gt;test code" style="edgeStyle=none;rounded=0;orthogonalLoop=1;jettySize=auto;html=1;entryX=0;entryY=0.5;entryDx=0;entryDy=0;exitX=0.87;exitY=0.65;exitDx=0;exitDy=0;exitPerimeter=0;" parent="kiVt3S2lOiR5hsIp-Kmd-1" source="gddFXcormWA68JvpZiPz-38" target="kiVt3S2lOiR5hsIp-Kmd-131" edge="1"><mxGeometry relative="1" as="geometry"/></mxCell><mxCell id="kiVt3S2lOiR5hsIp-Kmd-72" value="check-in to venue" style="edgeStyle=none;rounded=0;orthogonalLoop=1;jettySize=auto;html=1;entryX=0;entryY=0.75;entryDx=0;entryDy=0;exitX=0.87;exitY=0.65;exitDx=0;exitDy=0;exitPerimeter=0;" parent="kiVt3S2lOiR5hsIp-Kmd-1" source="gddFXcormWA68JvpZiPz-11" target="kiVt3S2lOiR5hsIp-Kmd-92" edge="1"><mxGeometry relative="1" as="geometry"/></mxCell><mxCell id="kiVt3S2lOiR5hsIp-Kmd-77" style="edgeStyle=none;rounded=0;orthogonalLoop=1;jettySize=auto;html=1;" parent="kiVt3S2lOiR5hsIp-Kmd-1" source="kiVt3S2lOiR5hsIp-Kmd-79" target="kiVt3S2lOiR5hsIp-Kmd-82" edge="1"><mxGeometry relative="1" as="geometry"><mxPoint x="801.33" y="81.3" as="targetPoint"/></mxGeometry></mxCell><mxCell id="kiVt3S2lOiR5hsIp-Kmd-78" value="provides IDs from&lt;br&gt;generated posters" style="edgeLabel;html=1;align=center;verticalAlign=middle;resizable=0;points=[];" parent="kiVt3S2lOiR5hsIp-Kmd-77" vertex="1" connectable="0"><mxGeometry x="0.0549" y="2" relative="1" as="geometry"><mxPoint as="offset"/></mxGeometry></mxCell><mxCell id="kiVt3S2lOiR5hsIp-Kmd-79" value="&lt;span&gt;QR Code &lt;br&gt;Poster Generator&lt;br&gt;[Web Application]&lt;br&gt;&lt;/span&gt;" style="whiteSpace=wrap;html=1;strokeColor=#0e8088;fontStyle=0;fillColor=#b0e3e6;" parent="kiVt3S2lOiR5hsIp-Kmd-1" vertex="1"><mxGeometry x="907.13" y="36.82" width="104.11" height="93.84" as="geometry"/></mxCell><mxCell id="kiVt3S2lOiR5hsIp-Kmd-80" value="Upload/&lt;br&gt;Identified Risk Venues" style="html=1;fillColor=#B0E3E6;strokeColor=#0E8088;labelPosition=left;verticalLabelPosition=middle;align=right;verticalAlign=middle;spacingRight=5;" parent="kiVt3S2lOiR5hsIp-Kmd-1" vertex="1"><mxGeometry x="499.13" y="65.90999999999997" width="25" height="25" as="geometry"/></mxCell><mxCell id="kiVt3S2lOiR5hsIp-Kmd-82" value="&lt;span&gt;England/Wales&lt;br&gt;Risk Venues&lt;br&gt;&lt;/span&gt;" style="whiteSpace=wrap;html=1;fontStyle=0;fillColor=#b0e3e6;strokeColor=#0e8088;" parent="kiVt3S2lOiR5hsIp-Kmd-1" vertex="1"><mxGeometry x="662.71" y="48.27999999999999" width="97.84" height="50" as="geometry"/></mxCell><mxCell id="kiVt3S2lOiR5hsIp-Kmd-83" value="App Analytics Environment AAE" style="whiteSpace=wrap;html=1;strokeColor=#0e8088;fontStyle=0;fillColor=#b0e3e6;" parent="kiVt3S2lOiR5hsIp-Kmd-1" vertex="1"><mxGeometry x="758.3900000000002" y="950" width="119.68" height="57.31" as="geometry"/></mxCell><mxCell id="kiVt3S2lOiR5hsIp-Kmd-86" style="edgeStyle=none;rounded=0;orthogonalLoop=1;jettySize=auto;html=1;exitX=1;exitY=0.5;exitDx=0;exitDy=0;fontColor=#000000;entryX=0;entryY=0.5;entryDx=0;entryDy=0;" parent="kiVt3S2lOiR5hsIp-Kmd-1" source="gddFXcormWA68JvpZiPz-15" target="kiVt3S2lOiR5hsIp-Kmd-83" edge="1"><mxGeometry relative="1" as="geometry"><mxPoint x="767.44" y="1063.425" as="sourcePoint"/><mxPoint x="620.44" y="1049.82" as="targetPoint"/></mxGeometry></mxCell><mxCell id="kiVt3S2lOiR5hsIp-Kmd-87" value="&lt;font color=&quot;#000000&quot;&gt;send mobile analytics, &lt;br&gt;[parquet files&lt;/font&gt;&lt;font color=&quot;#000000&quot;&gt;&amp;nbsp;~every 10min]&lt;br&gt;[JSON files ~immediate]&lt;br&gt;&lt;/font&gt;" style="edgeLabel;html=1;align=center;verticalAlign=middle;resizable=0;points=[];fontColor=#999999;" parent="kiVt3S2lOiR5hsIp-Kmd-86" vertex="1" connectable="0"><mxGeometry x="-0.0197" y="-1" relative="1" as="geometry"><mxPoint x="-9.28" y="0.96" as="offset"/></mxGeometry></mxCell><mxCell id="kiVt3S2lOiR5hsIp-Kmd-90" value="UK QR Code System&lt;br&gt;(based on customised&amp;nbsp; NZ system)" style="rounded=0;whiteSpace=wrap;html=1;fillColor=#bac8d3;strokeColor=#23445d;" parent="kiVt3S2lOiR5hsIp-Kmd-1" vertex="1"><mxGeometry x="1003.0000000000001" y="97.91999999999999" width="132.37" height="66.23" as="geometry"/></mxCell><mxCell id="kiVt3S2lOiR5hsIp-Kmd-91" value="scan venue poster" style="rounded=0;orthogonalLoop=1;jettySize=auto;html=1;entryX=1;entryY=0.5;entryDx=0;entryDy=0;" parent="kiVt3S2lOiR5hsIp-Kmd-1" source="kiVt3S2lOiR5hsIp-Kmd-92" target="kiVt3S2lOiR5hsIp-Kmd-108" edge="1"><mxGeometry relative="1" as="geometry"><mxPoint x="-403.39" y="93.15500000000006" as="targetPoint"/></mxGeometry></mxCell><mxCell id="kiVt3S2lOiR5hsIp-Kmd-92" value="" style="rounded=0;whiteSpace=wrap;html=1;fillColor=#b0e3e6;strokeColor=#0e8088;" parent="kiVt3S2lOiR5hsIp-Kmd-1" vertex="1"><mxGeometry x="-335.5" y="-62.54" width="25" height="25" as="geometry"/></mxCell><mxCell id="kiVt3S2lOiR5hsIp-Kmd-93" value="&lt;font color=&quot;#000000&quot;&gt;App Admin&lt;/font&gt;" style="pointerEvents=1;shadow=0;dashed=0;html=1;labelPosition=center;verticalLabelPosition=bottom;verticalAlign=top;align=center;fillColor=#647687;shape=mxgraph.mscae.intune.user_group;fontColor=#ffffff;strokeColor=#314354;" parent="kiVt3S2lOiR5hsIp-Kmd-1" vertex="1"><mxGeometry x="-445.25" y="879.9200000000001" width="50" height="37" as="geometry"/></mxCell><mxCell id="kiVt3S2lOiR5hsIp-Kmd-94" value="requirement process for &lt;br&gt;getting data and links" style="edgeStyle=none;rounded=0;orthogonalLoop=1;jettySize=auto;html=1;entryX=1;entryY=0.5;entryDx=0;entryDy=0;exitX=0;exitY=0.5;exitDx=0;exitDy=0;endArrow=none;endFill=0;startArrow=classic;startFill=1;" parent="kiVt3S2lOiR5hsIp-Kmd-1" source="eq-pwSev9H0Bq-plpGlM-3" target="kiVt3S2lOiR5hsIp-Kmd-54" edge="1"><mxGeometry relative="1" as="geometry"><mxPoint x="706.2900000000001" y="302.9599999999999" as="sourcePoint"/><mxPoint x="727.3099999999998" y="322.65999999999997" as="targetPoint"/></mxGeometry></mxCell><mxCell id="kiVt3S2lOiR5hsIp-Kmd-95" style="edgeStyle=none;rounded=0;orthogonalLoop=1;jettySize=auto;html=1;endArrow=classic;endFill=1;startArrow=none;startFill=0;entryX=0;entryY=0.5;entryDx=0;entryDy=0;exitX=1;exitY=0.5;exitDx=0;exitDy=0;" parent="kiVt3S2lOiR5hsIp-Kmd-1" target="kiVt3S2lOiR5hsIp-Kmd-13" edge="1"><mxGeometry relative="1" as="geometry"><mxPoint x="781.2700000000002" y="208.17999999999967" as="targetPoint"/><mxPoint x="766.64" y="203.79999999999964" as="sourcePoint"/></mxGeometry></mxCell><mxCell id="kiVt3S2lOiR5hsIp-Kmd-96" value="operations process, &lt;br&gt;get list of high-risk &lt;br&gt;postal districts" style="edgeLabel;html=1;align=center;verticalAlign=middle;resizable=0;points=[];" parent="kiVt3S2lOiR5hsIp-Kmd-95" vertex="1" connectable="0"><mxGeometry x="0.0781" y="1" relative="1" as="geometry"><mxPoint as="offset"/></mxGeometry></mxCell><mxCell id="kiVt3S2lOiR5hsIp-Kmd-97" value="England Test Database&lt;br&gt;[NPEx]" style="whiteSpace=wrap;html=1;fontStyle=0;fillColor=#b0e3e6;strokeColor=#0E8088;" parent="kiVt3S2lOiR5hsIp-Kmd-1" vertex="1"><mxGeometry x="776.5600000000001" y="542.87" width="83.34" height="50" as="geometry"/></mxCell><mxCell id="kiVt3S2lOiR5hsIp-Kmd-98" value="NHS Wales Integration&lt;br&gt;[Fiorano]" style="whiteSpace=wrap;html=1;fontColor=#000000;fontStyle=0;fillColor=#B0E3E6;strokeColor=#0E8088;" parent="kiVt3S2lOiR5hsIp-Kmd-1" vertex="1"><mxGeometry x="880.5500000000001" y="542.87" width="83.34" height="50" as="geometry"/></mxCell><mxCell id="kiVt3S2lOiR5hsIp-Kmd-99" value="cta" style="edgeStyle=none;rounded=0;orthogonalLoop=1;jettySize=auto;html=1;entryX=0.5;entryY=0;entryDx=0;entryDy=0;" parent="kiVt3S2lOiR5hsIp-Kmd-1" source="kiVt3S2lOiR5hsIp-Kmd-100" target="kiVt3S2lOiR5hsIp-Kmd-7" edge="1"><mxGeometry relative="1" as="geometry"/></mxCell><mxCell id="kiVt3S2lOiR5hsIp-Kmd-104" value="Public Health England (PHE), JBC" style="rounded=0;whiteSpace=wrap;html=1;fillColor=#bac8d3;strokeColor=#23445d;" parent="kiVt3S2lOiR5hsIp-Kmd-1" vertex="1"><mxGeometry x="876.1400000000001" y="290.2299999999999" width="82" height="56" as="geometry"/></mxCell><mxCell id="kiVt3S2lOiR5hsIp-Kmd-105" value="Planned" style="whiteSpace=wrap;html=1;" parent="kiVt3S2lOiR5hsIp-Kmd-1" vertex="1"><mxGeometry x="1297.5" y="600.0300000000002" width="59" height="43" as="geometry"/></mxCell><mxCell id="kiVt3S2lOiR5hsIp-Kmd-106" value="" style="rounded=0;whiteSpace=wrap;html=1;fillColor=#b0e3e6;strokeColor=#0e8088;" parent="kiVt3S2lOiR5hsIp-Kmd-1" vertex="1"><mxGeometry x="-335.5" y="203.37" width="25" height="25" as="geometry"/></mxCell><mxCell id="kiVt3S2lOiR5hsIp-Kmd-108" value="&lt;span&gt;Venue &lt;br&gt;QR Code &lt;br&gt;Poster&lt;br&gt;&lt;/span&gt;" style="whiteSpace=wrap;html=1;verticalAlign=middle;fillColor=#ffe6cc;strokeColor=#d79b00;" parent="kiVt3S2lOiR5hsIp-Kmd-1" vertex="1"><mxGeometry x="-560" y="-137.85" width="78.61" height="54.62" as="geometry"/></mxCell><mxCell id="kiVt3S2lOiR5hsIp-Kmd-117" style="edgeStyle=none;rounded=0;orthogonalLoop=1;jettySize=auto;html=1;entryX=1;entryY=0.5;entryDx=0;entryDy=0;endArrow=none;endFill=0;startArrow=classic;startFill=1;exitX=0;exitY=0.5;exitDx=0;exitDy=0;" parent="kiVt3S2lOiR5hsIp-Kmd-1" source="onJceIhS_v7Q1VFYmYFt-3" target="gddFXcormWA68JvpZiPz-1" edge="1"><mxGeometry relative="1" as="geometry"><mxPoint x="819.6800000000005" y="446.76000000000016" as="sourcePoint"/><mxPoint x="816.8300000000002" y="997.5000000000001" as="targetPoint"/></mxGeometry></mxCell><mxCell id="gddFXcormWA68JvpZiPz-3" value="requirement process: &lt;br&gt;get website URL" style="edgeLabel;html=1;align=center;verticalAlign=middle;resizable=0;points=[];" parent="kiVt3S2lOiR5hsIp-Kmd-117" vertex="1" connectable="0"><mxGeometry x="-0.2209" y="5" relative="1" as="geometry"><mxPoint x="-17.470000000000002" y="-0.5899999999999999" as="offset"/></mxGeometry></mxCell><mxCell id="kiVt3S2lOiR5hsIp-Kmd-120" value="" style="endArrow=none;dashed=1;html=1;strokeWidth=3;strokeColor=#B3B3B3;" parent="kiVt3S2lOiR5hsIp-Kmd-1" edge="1"><mxGeometry width="50" height="50" relative="1" as="geometry"><mxPoint x="27" y="729" as="sourcePoint"/><mxPoint x="-786" y="729" as="targetPoint"/></mxGeometry></mxCell><mxCell id="kiVt3S2lOiR5hsIp-Kmd-121" value="Operations" style="text;html=1;strokeColor=none;fillColor=none;align=left;verticalAlign=middle;whiteSpace=wrap;rounded=0;fontSize=27;fontColor=#B3B3B3;" parent="kiVt3S2lOiR5hsIp-Kmd-1" vertex="1"><mxGeometry x="-733.8800000000001" y="759.55" width="408.25" height="20" as="geometry"/></mxCell><mxCell id="kiVt3S2lOiR5hsIp-Kmd-123" value="&lt;span&gt;Mail/SMS with virology test result code&lt;br&gt;&lt;/span&gt;" style="whiteSpace=wrap;html=1;strokeColor=#d79b00;fontColor=#000000;verticalAlign=middle;fillColor=#ffe6cc;" parent="kiVt3S2lOiR5hsIp-Kmd-1" vertex="1"><mxGeometry x="-579.5" y="426.4800000000001" width="92.5" height="55.75" as="geometry"/></mxCell><mxCell id="kiVt3S2lOiR5hsIp-Kmd-128" value="Upload/&lt;br&gt;TokenAPI&lt;br&gt;(v1 &amp;amp; v2)" style="whiteSpace=wrap;html=1;strokeColor=#0E8088;fillColor=#B0E3E6;labelPosition=left;verticalLabelPosition=middle;align=right;verticalAlign=middle;spacingRight=5;" parent="kiVt3S2lOiR5hsIp-Kmd-1" vertex="1"><mxGeometry x="498.84000000000003" y="650.3499999999999" width="25" height="25" as="geometry"/></mxCell><mxCell id="kiVt3S2lOiR5hsIp-Kmd-129" value="get order URL&amp;nbsp;&lt;br&gt;and tokens" style="edgeStyle=none;rounded=0;orthogonalLoop=1;jettySize=auto;html=1;exitX=1;exitY=0.5;exitDx=0;exitDy=0;entryX=0;entryY=0.25;entryDx=0;entryDy=0;" parent="kiVt3S2lOiR5hsIp-Kmd-1" edge="1"><mxGeometry x="-0.1959" y="3" relative="1" as="geometry"><mxPoint as="offset"/><mxPoint x="112.67000000000007" y="115.55750000000012" as="targetPoint"/></mxGeometry></mxCell><mxCell id="kiVt3S2lOiR5hsIp-Kmd-131" value="" style="rounded=0;whiteSpace=wrap;html=1;fillColor=#b0e3e6;strokeColor=#0e8088;" parent="kiVt3S2lOiR5hsIp-Kmd-1" vertex="1"><mxGeometry x="-335.5" y="411.14" width="25" height="25" as="geometry"/></mxCell><mxCell id="kiVt3S2lOiR5hsIp-Kmd-132" value="England (BSA),&amp;nbsp;Wales (PHW)" style="rounded=0;whiteSpace=wrap;html=1;fillColor=#bac8d3;strokeColor=#23445d;" parent="kiVt3S2lOiR5hsIp-Kmd-1" vertex="1"><mxGeometry x="-642.5" y="455.40000000000003" width="81" height="51.56" as="geometry"/></mxCell><mxCell id="kiVt3S2lOiR5hsIp-Kmd-133" style="rounded=0;orthogonalLoop=1;jettySize=auto;html=1;exitX=0;exitY=0.5;exitDx=0;exitDy=0;" parent="kiVt3S2lOiR5hsIp-Kmd-1" source="eq-pwSev9H0Bq-plpGlM-13" target="kiVt3S2lOiR5hsIp-Kmd-128" edge="1"><mxGeometry relative="1" as="geometry"/></mxCell><mxCell id="kiVt3S2lOiR5hsIp-Kmd-134" value="if ctaToken NOT received from website&lt;br&gt;upload test results &amp;amp; &lt;br&gt;create test result token&lt;br&gt;&amp;nbsp;for sending sms/mail" style="edgeLabel;html=1;align=center;verticalAlign=middle;resizable=0;points=[];" parent="kiVt3S2lOiR5hsIp-Kmd-133" vertex="1" connectable="0"><mxGeometry x="0.0699" y="-1" relative="1" as="geometry"><mxPoint x="32.94000000000001" y="8.2" as="offset"/></mxGeometry></mxCell><mxCell id="kiVt3S2lOiR5hsIp-Kmd-137" value="PHW Token Retrieval" style="whiteSpace=wrap;html=1;fillColor=#B0E3E6;strokeColor=#0E8088;" parent="kiVt3S2lOiR5hsIp-Kmd-1" vertex="1"><mxGeometry x="929.55" y="666.4399999999999" width="76.55" height="53" as="geometry"/></mxCell><mxCell id="kiVt3S2lOiR5hsIp-Kmd-139" value="England and Wales&lt;br&gt;Businesses" style="rounded=0;whiteSpace=wrap;html=1;fillColor=#bac8d3;strokeColor=#23445d;" parent="kiVt3S2lOiR5hsIp-Kmd-1" vertex="1"><mxGeometry x="-632" y="-99.02000000000001" width="85" height="55.55" as="geometry"/></mxCell><mxCell id="kiVt3S2lOiR5hsIp-Kmd-140" value="UK &lt;br&gt;Virology Test Booking Services" style="rounded=0;whiteSpace=wrap;html=1;fillColor=#bac8d3;strokeColor=#23445d;" parent="kiVt3S2lOiR5hsIp-Kmd-1" vertex="1"><mxGeometry x="-667.5" y="177.48" width="103.25" height="53.89" as="geometry"/></mxCell><mxCell id="kiVt3S2lOiR5hsIp-Kmd-154" value="2021-03-24" style="text;html=1;strokeColor=none;fillColor=none;align=center;verticalAlign=middle;whiteSpace=wrap;rounded=0;fontSize=24;fontColor=#FF0000;" parent="kiVt3S2lOiR5hsIp-Kmd-1" vertex="1"><mxGeometry x="1065" y="316" width="349.68" height="20" as="geometry"/></mxCell><mxCell id="kiVt3S2lOiR5hsIp-Kmd-155" value="BSA" style="whiteSpace=wrap;html=1;fillColor=#B0E3E6;strokeColor=#0E8088;" parent="kiVt3S2lOiR5hsIp-Kmd-1" vertex="1"><mxGeometry x="841.76" y="666.44" width="75.24" height="53.56" as="geometry"/></mxCell><mxCell id="kiVt3S2lOiR5hsIp-Kmd-156" value="NWIS" style="rounded=0;whiteSpace=wrap;html=1;fillColor=#bac8d3;strokeColor=#23445d;" parent="kiVt3S2lOiR5hsIp-Kmd-1" vertex="1"><mxGeometry x="973.5500000000002" y="731.54" width="62" height="31.38" as="geometry"/></mxCell><mxCell id="kiVt3S2lOiR5hsIp-Kmd-163" style="edgeStyle=none;rounded=0;orthogonalLoop=1;jettySize=auto;html=1;exitX=0;exitY=0.5;exitDx=0;exitDy=0;entryX=1;entryY=0.5;entryDx=0;entryDy=0;" parent="kiVt3S2lOiR5hsIp-Kmd-1" source="kiVt3S2lOiR5hsIp-Kmd-82" target="kiVt3S2lOiR5hsIp-Kmd-80" edge="1"><mxGeometry relative="1" as="geometry"><mxPoint x="1042.64" y="159.51" as="targetPoint"/></mxGeometry></mxCell><mxCell id="kiVt3S2lOiR5hsIp-Kmd-164" value="list of risk venues&lt;br&gt;[https text/csv]" style="edgeLabel;html=1;align=center;verticalAlign=middle;resizable=0;points=[];" parent="kiVt3S2lOiR5hsIp-Kmd-163" vertex="1" connectable="0"><mxGeometry x="0.0781" y="1" relative="1" as="geometry"><mxPoint x="11.11" y="3.450000000000003" as="offset"/></mxGeometry></mxCell><mxCell id="obj5qkunVQzRYrQUTyJ8-7" value="NWIS" style="rounded=0;whiteSpace=wrap;html=1;fillColor=#bac8d3;strokeColor=#23445d;" parent="kiVt3S2lOiR5hsIp-Kmd-1" vertex="1"><mxGeometry x="955.3000000000001" y="519.77" width="62" height="39.24" as="geometry"/></mxCell><mxCell id="eq-pwSev9H0Bq-plpGlM-1" value="Policy and &lt;br&gt;Strategy" style="rounded=0;whiteSpace=wrap;html=1;fillColor=#bac8d3;strokeColor=#23445d;" parent="kiVt3S2lOiR5hsIp-Kmd-1" vertex="1"><mxGeometry x="964.4300000000001" y="312.6199999999999" width="97" height="47.63" as="geometry"/></mxCell><mxCell id="eq-pwSev9H0Bq-plpGlM-2" value="Public Health Wales" style="rounded=0;whiteSpace=wrap;html=1;fillColor=#bac8d3;strokeColor=#23445d;" parent="kiVt3S2lOiR5hsIp-Kmd-1" vertex="1"><mxGeometry x="818.49" y="309.22999999999996" width="64" height="43.84" as="geometry"/></mxCell><mxCell id="eq-pwSev9H0Bq-plpGlM-10" value="" style="ellipse;shape=cloud;whiteSpace=wrap;html=1;fillColor=#bac8d3;strokeWidth=2;strokeColor=#23445d;" parent="kiVt3S2lOiR5hsIp-Kmd-1" vertex="1"><mxGeometry x="93" y="-334" width="64" height="41" as="geometry"/></mxCell><mxCell id="eq-pwSev9H0Bq-plpGlM-11" value="for mobile app and external data sources and systems" style="text;html=1;strokeColor=none;fillColor=none;align=left;verticalAlign=middle;whiteSpace=wrap;rounded=0;fontSize=20;fontColor=#B3B3B3;" parent="kiVt3S2lOiR5hsIp-Kmd-1" vertex="1"><mxGeometry x="184.36" y="-326" width="269.64" height="20" as="geometry"/></mxCell><mxCell id="eq-pwSev9H0Bq-plpGlM-14" value="Store and Forward APIs&lt;br&gt;[NearForm]" style="whiteSpace=wrap;html=1;align=center;strokeColor=#0E8088;fillColor=#B0E3E6;spacingRight=5;" parent="kiVt3S2lOiR5hsIp-Kmd-1" vertex="1"><mxGeometry x="667.63" y="-115.98" width="88" height="79" as="geometry"/></mxCell><mxCell id="eq-pwSev9H0Bq-plpGlM-18" value="&lt;span&gt;Group&lt;br&gt;&lt;/span&gt;" style="whiteSpace=wrap;html=1;strokeColor=#000000;fontColor=#000000;fontStyle=0;dashed=1;verticalAlign=top;" parent="kiVt3S2lOiR5hsIp-Kmd-1" vertex="1"><mxGeometry x="1200.5" y="739.5900000000001" width="106.43" height="36" as="geometry"/></mxCell><mxCell id="eq-pwSev9H0Bq-plpGlM-19" value="Object" style="whiteSpace=wrap;html=1;fillColor=#ffe6cc;strokeColor=#d79b00;" parent="kiVt3S2lOiR5hsIp-Kmd-1" vertex="1"><mxGeometry x="1201.21" y="790.5900000000001" width="105" height="36.97" as="geometry"/></mxCell><mxCell id="eq-pwSev9H0Bq-plpGlM-20" value="England/Wales&amp;nbsp; Virology &lt;br&gt;Website" style="whiteSpace=wrap;html=1;strokeColor=#0e8088;fontStyle=0;fillColor=#b0e3e6;" parent="kiVt3S2lOiR5hsIp-Kmd-1" vertex="1"><mxGeometry x="-567.25" y="198.92999999999998" width="100" height="69.94" as="geometry"/></mxCell><mxCell id="eq-pwSev9H0Bq-plpGlM-23" value="" style="whiteSpace=wrap;html=1;fontColor=#000000;strokeColor=#0e8088;fillColor=#b0e3e6;" parent="kiVt3S2lOiR5hsIp-Kmd-1" vertex="1"><mxGeometry x="-338.49" y="-194.37" width="25" height="25" as="geometry"/></mxCell><mxCell id="eq-pwSev9H0Bq-plpGlM-25" style="rounded=0;orthogonalLoop=1;jettySize=auto;html=1;startArrow=classic;startFill=1;exitX=1;exitY=0.25;exitDx=0;exitDy=0;exitPerimeter=0;entryX=0;entryY=0.5;entryDx=0;entryDy=0;" parent="kiVt3S2lOiR5hsIp-Kmd-1" source="gddFXcormWA68JvpZiPz-49" target="eq-pwSev9H0Bq-plpGlM-23" edge="1"><mxGeometry relative="1" as="geometry"><mxPoint x="-157.99" y="-211.52941176470586" as="sourcePoint"/><mxPoint x="-175.99" y="-237" as="targetPoint"/></mxGeometry></mxCell><mxCell id="eq-pwSev9H0Bq-plpGlM-26" value="BLE encounter &lt;br&gt;detection" style="edgeLabel;html=1;align=center;verticalAlign=middle;resizable=0;points=[];" parent="eq-pwSev9H0Bq-plpGlM-25" vertex="1" connectable="0"><mxGeometry x="-0.3285" y="-11" relative="1" as="geometry"><mxPoint x="30.93" y="-15.500000000000002" as="offset"/></mxGeometry></mxCell><mxCell id="eq-pwSev9H0Bq-plpGlM-28" value="Northern Ireland" style="rounded=0;whiteSpace=wrap;html=1;fillColor=#bac8d3;strokeColor=#23445d;" parent="kiVt3S2lOiR5hsIp-Kmd-1" vertex="1"><mxGeometry x="795.1899999999999" y="-57.22" width="60.86" height="33.02" as="geometry"/></mxCell><mxCell id="eq-pwSev9H0Bq-plpGlM-29" value="Scotland" style="rounded=0;whiteSpace=wrap;html=1;fillColor=#bac8d3;strokeColor=#23445d;" parent="kiVt3S2lOiR5hsIp-Kmd-1" vertex="1"><mxGeometry x="795.0500000000001" y="-126.52" width="60.85" height="31.02" as="geometry"/></mxCell><mxCell id="eq-pwSev9H0Bq-plpGlM-43" value="Diagnosis Key &lt;br&gt;Exchange" style="rounded=0;orthogonalLoop=1;jettySize=auto;html=1;entryX=0;entryY=0.5;entryDx=0;entryDy=0;startArrow=none;startFill=0;exitX=1;exitY=0.5;exitDx=0;exitDy=0;" parent="kiVt3S2lOiR5hsIp-Kmd-1" source="eq-pwSev9H0Bq-plpGlM-42" target="eq-pwSev9H0Bq-plpGlM-14" edge="1"><mxGeometry x="-0.0062" y="7" relative="1" as="geometry"><mxPoint as="offset"/></mxGeometry></mxCell><mxCell id="eq-pwSev9H0Bq-plpGlM-42" value="Federated Server Connector" style="whiteSpace=wrap;html=1;labelPosition=left;verticalLabelPosition=middle;align=right;verticalAlign=middle;strokeColor=#0E8088;fillColor=#B0E3E6;spacingRight=5;" parent="kiVt3S2lOiR5hsIp-Kmd-1" vertex="1"><mxGeometry x="499.99" y="-64.09" width="25" height="25" as="geometry"/></mxCell><mxCell id="eq-pwSev9H0Bq-plpGlM-47" value="Jersey" style="rounded=0;whiteSpace=wrap;html=1;fillColor=#bac8d3;strokeColor=#23445d;" parent="kiVt3S2lOiR5hsIp-Kmd-1" vertex="1"><mxGeometry x="795.0500000000001" y="-91.98" width="60.85" height="31" as="geometry"/></mxCell><mxCell id="RhHI8AFG3n83xqcbE-fy-3" value="boundary" style="endArrow=none;dashed=1;html=1;strokeWidth=3;strokeColor=#B3B3B3;" parent="kiVt3S2lOiR5hsIp-Kmd-1" edge="1"><mxGeometry width="50" height="50" relative="1" as="geometry"><mxPoint x="1333" y="482.05000000000007" as="sourcePoint"/><mxPoint x="1195" y="482.05000000000007" as="targetPoint"/></mxGeometry></mxCell><mxCell id="gddFXcormWA68JvpZiPz-1" value="VirologyTesting&lt;br&gt;Configuration" style="whiteSpace=wrap;html=1;strokeColor=#0E8088;fillColor=#B0E3E6;labelPosition=left;verticalLabelPosition=middle;align=right;verticalAlign=middle;spacingRight=5;" parent="kiVt3S2lOiR5hsIp-Kmd-1" vertex="1"><mxGeometry x="499.1299999999999" y="498.2800000000001" width="25" height="25" as="geometry"/></mxCell><mxCell id="gddFXcormWA68JvpZiPz-4" value="&lt;span&gt;PostalDistrict&lt;br&gt;DataFormat&lt;br&gt;Transformation&lt;br&gt;&lt;/span&gt;" style="whiteSpace=wrap;html=1;fontStyle=0;fillColor=#b0e3e6;strokeColor=#0e8088;" parent="kiVt3S2lOiR5hsIp-Kmd-1" vertex="1"><mxGeometry x="662.71" y="164.14999999999986" width="97.84" height="50" as="geometry"/></mxCell><mxCell id="gddFXcormWA68JvpZiPz-5" style="edgeStyle=none;rounded=0;orthogonalLoop=1;jettySize=auto;html=1;exitX=0;exitY=0.5;exitDx=0;exitDy=0;entryX=1;entryY=0.5;entryDx=0;entryDy=0;" parent="kiVt3S2lOiR5hsIp-Kmd-1" source="gddFXcormWA68JvpZiPz-4" target="kiVt3S2lOiR5hsIp-Kmd-51" edge="1"><mxGeometry relative="1" as="geometry"><mxPoint x="573.2300000000006" y="388.44999999999993" as="targetPoint"/><mxPoint x="709.0699999999998" y="402.6099999999998" as="sourcePoint"/></mxGeometry></mxCell><mxCell id="gddFXcormWA68JvpZiPz-6" value="list of postal district &lt;br&gt;risk level&lt;br&gt;[https text/csv]" style="edgeLabel;html=1;align=center;verticalAlign=middle;resizable=0;points=[];" parent="gddFXcormWA68JvpZiPz-5" vertex="1" connectable="0"><mxGeometry x="0.0781" y="1" relative="1" as="geometry"><mxPoint x="4.66" y="13.590000000000003" as="offset"/></mxGeometry></mxCell><mxCell id="gddFXcormWA68JvpZiPz-11" value="" style="verticalLabelPosition=bottom;html=1;verticalAlign=top;align=center;shape=mxgraph.azure.user;fillColor=#647687;strokeColor=#314354;fontColor=#ffffff;" parent="kiVt3S2lOiR5hsIp-Kmd-1" vertex="1"><mxGeometry x="-498.39" y="-70.17999999999996" width="36.03" height="37" as="geometry"/></mxCell><mxCell id="gddFXcormWA68JvpZiPz-14" value="" style="pointerEvents=1;shadow=0;dashed=0;html=1;strokeColor=none;labelPosition=center;verticalLabelPosition=bottom;verticalAlign=top;align=center;fillColor=#515151;shape=mxgraph.mscae.enterprise.database_server;fontColor=#000000;" parent="kiVt3S2lOiR5hsIp-Kmd-1" vertex="1"><mxGeometry x="139" y="-332" width="38" height="50" as="geometry"/></mxCell><mxCell id="gddFXcormWA68JvpZiPz-15" value="AAE Exporter" style="whiteSpace=wrap;html=1;strokeColor=#0E8088;fillColor=#B0E3E6;labelPosition=left;verticalLabelPosition=middle;align=right;verticalAlign=middle;spacingRight=5;" parent="kiVt3S2lOiR5hsIp-Kmd-1" vertex="1"><mxGeometry x="499.14" y="869.1399999999999" width="25" height="25" as="geometry"/></mxCell><mxCell id="gddFXcormWA68JvpZiPz-16" value="System and &lt;br&gt;App Data" style="html=1;strokeColor=#0e8088;fillColor=#b0e3e6;labelPosition=right;verticalLabelPosition=middle;align=left;verticalAlign=middle;spacingLeft=5;" parent="kiVt3S2lOiR5hsIp-Kmd-1" vertex="1"><mxGeometry x="127.78" y="953.12" width="23.84" height="24.31" as="geometry"/></mxCell><mxCell id="gddFXcormWA68JvpZiPz-17" style="edgeStyle=none;rounded=0;orthogonalLoop=1;jettySize=auto;html=1;exitX=0;exitY=0;exitDx=0;exitDy=0;startArrow=none;startFill=0;endArrow=classic;endFill=1;strokeColor=#000000;fontColor=#000000;" parent="kiVt3S2lOiR5hsIp-Kmd-1" source="kiVt3S2lOiR5hsIp-Kmd-100" target="kiVt3S2lOiR5hsIp-Kmd-100" edge="1"><mxGeometry relative="1" as="geometry"/></mxCell><mxCell id="gddFXcormWA68JvpZiPz-19" value="Advice Data" style="whiteSpace=wrap;html=1;strokeColor=#0E8088;fillColor=#B0E3E6;labelPosition=left;verticalLabelPosition=middle;align=right;verticalAlign=middle;spacingRight=5;" parent="kiVt3S2lOiR5hsIp-Kmd-1" vertex="1"><mxGeometry x="499.14" y="358.78000000000003" width="25" height="25" as="geometry"/></mxCell><mxCell id="gddFXcormWA68JvpZiPz-20" value="requirement process for &lt;br&gt;getting data and links" style="edgeStyle=none;rounded=0;orthogonalLoop=1;jettySize=auto;html=1;entryX=1;entryY=0.5;entryDx=0;entryDy=0;exitX=0;exitY=0.75;exitDx=0;exitDy=0;endArrow=none;endFill=0;startArrow=classic;startFill=1;" parent="kiVt3S2lOiR5hsIp-Kmd-1" source="eq-pwSev9H0Bq-plpGlM-3" target="gddFXcormWA68JvpZiPz-19" edge="1"><mxGeometry relative="1" as="geometry"><mxPoint x="768.14" y="335.5699999999998" as="sourcePoint"/><mxPoint x="564.14" y="341.36" as="targetPoint"/></mxGeometry></mxCell><mxCell id="eq-pwSev9H0Bq-plpGlM-17" value="" style="group" parent="kiVt3S2lOiR5hsIp-Kmd-1" vertex="1" connectable="0"><mxGeometry x="-205" y="-221.95" width="29" height="40" as="geometry"/></mxCell><mxCell id="kiVt3S2lOiR5hsIp-Kmd-124" value="" style="group" parent="eq-pwSev9H0Bq-plpGlM-17" vertex="1" connectable="0"><mxGeometry width="29" height="40" as="geometry"/></mxCell><mxCell id="gddFXcormWA68JvpZiPz-21" value="gov.uk&lt;br&gt;(NHS)" style="rounded=0;whiteSpace=wrap;html=1;fillColor=#bac8d3;strokeColor=#23445d;" parent="kiVt3S2lOiR5hsIp-Kmd-1" vertex="1"><mxGeometry x="-592.5" y="348.75" width="69" height="45" as="geometry"/></mxCell><mxCell id="gddFXcormWA68JvpZiPz-22" value="NHS&amp;nbsp;&lt;br&gt;CV19 Websites" style="whiteSpace=wrap;html=1;strokeColor=#0e8088;fontStyle=0;fillColor=#b0e3e6;" parent="kiVt3S2lOiR5hsIp-Kmd-1" vertex="1"><mxGeometry x="-531.5" y="329.48" width="81" height="44" as="geometry"/></mxCell><mxCell id="gddFXcormWA68JvpZiPz-24" style="edgeStyle=none;rounded=0;orthogonalLoop=1;jettySize=auto;html=1;entryX=1;entryY=0.5;entryDx=0;entryDy=0;startArrow=none;startFill=0;endArrow=classic;endFill=1;strokeColor=#000000;fontColor=#000000;" parent="kiVt3S2lOiR5hsIp-Kmd-1" source="gddFXcormWA68JvpZiPz-23" target="gddFXcormWA68JvpZiPz-22" edge="1"><mxGeometry relative="1" as="geometry"/></mxCell><mxCell id="gddFXcormWA68JvpZiPz-25" value="show advice" style="edgeLabel;html=1;align=center;verticalAlign=middle;resizable=0;points=[];fontColor=#000000;" parent="gddFXcormWA68JvpZiPz-24" vertex="1" connectable="0"><mxGeometry x="-0.058" y="-3" relative="1" as="geometry"><mxPoint as="offset"/></mxGeometry></mxCell><mxCell id="gddFXcormWA68JvpZiPz-23" value="" style="rounded=0;whiteSpace=wrap;html=1;fillColor=#b0e3e6;strokeColor=#0e8088;" parent="kiVt3S2lOiR5hsIp-Kmd-1" vertex="1"><mxGeometry x="-337" y="298.40000000000003" width="25" height="25" as="geometry"/></mxCell><mxCell id="gddFXcormWA68JvpZiPz-26" value="" style="pointerEvents=1;dashed=0;html=1;strokeColor=none;fillColor=#4D4D4D;labelPosition=center;verticalLabelPosition=bottom;verticalAlign=top;outlineConnect=0;align=center;shape=mxgraph.office.devices.laptop;fontColor=#000000;gradientColor=none;" parent="kiVt3S2lOiR5hsIp-Kmd-1" vertex="1"><mxGeometry x="-555.25" y="146.47" width="40" height="30" as="geometry"/></mxCell><mxCell id="gddFXcormWA68JvpZiPz-27" value="" style="pointerEvents=1;dashed=0;html=1;strokeColor=none;fillColor=#4D4D4D;labelPosition=center;verticalLabelPosition=bottom;verticalAlign=top;outlineConnect=0;align=center;shape=mxgraph.office.devices.laptop;fontColor=#000000;gradientColor=none;" parent="kiVt3S2lOiR5hsIp-Kmd-1" vertex="1"><mxGeometry x="-578" y="303.89" width="40" height="30" as="geometry"/></mxCell><mxCell id="gddFXcormWA68JvpZiPz-37" value="verify test code" style="edgeStyle=none;rounded=0;orthogonalLoop=1;jettySize=auto;html=1;entryX=0;entryY=0.75;entryDx=0;entryDy=0;startArrow=none;startFill=0;endArrow=classic;endFill=1;strokeColor=#000000;fontColor=#000000;" parent="kiVt3S2lOiR5hsIp-Kmd-1" edge="1"><mxGeometry x="-0.3418" y="-8" relative="1" as="geometry"><mxPoint as="offset"/><mxPoint x="112.67000000000007" y="133.85249999999996" as="targetPoint"/></mxGeometry></mxCell><mxCell id="gddFXcormWA68JvpZiPz-38" value="" style="verticalLabelPosition=bottom;html=1;verticalAlign=top;align=center;shape=mxgraph.azure.user;fillColor=#647687;strokeColor=#314354;fontColor=#ffffff;" parent="kiVt3S2lOiR5hsIp-Kmd-1" vertex="1"><mxGeometry x="-480.5" y="415.5700000000001" width="36.03" height="37" as="geometry"/></mxCell><mxCell id="gddFXcormWA68JvpZiPz-43" value="book test" style="edgeStyle=none;rounded=0;orthogonalLoop=1;jettySize=auto;html=1;startArrow=none;startFill=0;endArrow=classic;endFill=1;strokeColor=#000000;fontColor=#000000;" parent="kiVt3S2lOiR5hsIp-Kmd-1" source="gddFXcormWA68JvpZiPz-40" target="kiVt3S2lOiR5hsIp-Kmd-106" edge="1"><mxGeometry relative="1" as="geometry"/></mxCell><mxCell id="gddFXcormWA68JvpZiPz-40" value="" style="verticalLabelPosition=bottom;html=1;verticalAlign=top;align=center;shape=mxgraph.azure.user;fillColor=#647687;strokeColor=#314354;fontColor=#ffffff;" parent="kiVt3S2lOiR5hsIp-Kmd-1" vertex="1"><mxGeometry x="-509.5" y="151.97000000000003" width="36.03" height="37" as="geometry"/></mxCell><mxCell id="gddFXcormWA68JvpZiPz-45" value="read advice" style="edgeStyle=none;rounded=0;orthogonalLoop=1;jettySize=auto;html=1;entryX=0;entryY=0.5;entryDx=0;entryDy=0;startArrow=none;startFill=0;endArrow=classic;endFill=1;strokeColor=#000000;fontColor=#000000;" parent="kiVt3S2lOiR5hsIp-Kmd-1" source="gddFXcormWA68JvpZiPz-41" target="gddFXcormWA68JvpZiPz-23" edge="1"><mxGeometry relative="1" as="geometry"/></mxCell><mxCell id="gddFXcormWA68JvpZiPz-41" value="" style="verticalLabelPosition=bottom;html=1;verticalAlign=top;align=center;shape=mxgraph.azure.user;fillColor=#647687;strokeColor=#314354;fontColor=#ffffff;" parent="kiVt3S2lOiR5hsIp-Kmd-1" vertex="1"><mxGeometry x="-528.78" y="284.30000000000007" width="36.03" height="37" as="geometry"/></mxCell><mxCell id="gddFXcormWA68JvpZiPz-46" value="Contact" style="verticalLabelPosition=bottom;html=1;verticalAlign=top;align=center;shape=mxgraph.azure.user;fillColor=#647687;strokeColor=#314354;" parent="kiVt3S2lOiR5hsIp-Kmd-1" vertex="1"><mxGeometry x="-562.75" y="-203.99999999999994" width="36.03" height="37" as="geometry"/></mxCell><mxCell id="gddFXcormWA68JvpZiPz-49" value="" style="outlineConnect=0;dashed=0;verticalLabelPosition=bottom;verticalAlign=top;align=center;html=1;shape=mxgraph.aws3.mobile_client;fillColor=#515151;strokeColor=none;fontColor=#000000;shadow=0;" parent="kiVt3S2lOiR5hsIp-Kmd-1" vertex="1"><mxGeometry x="-526.72" y="-218" width="20" height="33" as="geometry"/></mxCell><mxCell id="gddFXcormWA68JvpZiPz-57" value="&lt;span&gt;Venue &lt;br&gt;QR Code &lt;br&gt;Poster&lt;br&gt;&lt;/span&gt;" style="whiteSpace=wrap;html=1;verticalAlign=middle;fillColor=#ffe6cc;strokeColor=#d79b00;" parent="kiVt3S2lOiR5hsIp-Kmd-1" vertex="1"><mxGeometry x="1006.1000000000001" y="26.119999999999997" width="78.61" height="54.62" as="geometry"/></mxCell><mxCell id="gddFXcormWA68JvpZiPz-58" value="&lt;span&gt;Mail/SMS with virology test result code&lt;br&gt;&lt;/span&gt;" style="whiteSpace=wrap;html=1;strokeColor=#d79b00;fontColor=#000000;verticalAlign=middle;fillColor=#ffe6cc;" parent="kiVt3S2lOiR5hsIp-Kmd-1" vertex="1"><mxGeometry x="1020.5500000000002" y="618.7200000000001" width="92.5" height="55.75" as="geometry"/></mxCell><mxCell id="v7NWKqyv9IXQPwMrkkju-6" value="AWS Console" style="rounded=0;whiteSpace=wrap;html=1;fillColor=#b0e3e6;strokeColor=#0e8088;labelPosition=left;verticalLabelPosition=middle;align=right;verticalAlign=middle;spacingRight=5;" parent="kiVt3S2lOiR5hsIp-Kmd-1" vertex="1"><mxGeometry x="-67.53999999999999" y="820.8299999999999" width="25" height="25" as="geometry"/></mxCell><mxCell id="onJceIhS_v7Q1VFYmYFt-0" value="for the cloud services, the APIs and their infrastructure" style="text;html=1;strokeColor=none;fillColor=none;align=left;verticalAlign=middle;whiteSpace=wrap;rounded=0;fontSize=20;fontColor=#B3B3B3;" parent="kiVt3S2lOiR5hsIp-Kmd-1" vertex="1"><mxGeometry x="-711.97" y="811.52" width="271.53" height="20" as="geometry"/></mxCell><mxCell id="onJceIhS_v7Q1VFYmYFt-3" value="UK &lt;br&gt;Virology Test Booking Services" style="rounded=0;whiteSpace=wrap;html=1;fillColor=#bac8d3;strokeColor=#23445d;" parent="kiVt3S2lOiR5hsIp-Kmd-1" vertex="1"><mxGeometry x="723.99" y="437.95" width="103.25" height="53.89" as="geometry"/></mxCell><mxCell id="kiVt3S2lOiR5hsIp-Kmd-100" value="England/Wales&amp;nbsp; Virology &lt;br&gt;Website" style="whiteSpace=wrap;html=1;strokeColor=#0e8088;fontStyle=0;fillColor=#b0e3e6;" parent="kiVt3S2lOiR5hsIp-Kmd-1" vertex="1"><mxGeometry x="818.39" y="412.9200000000001" width="93.15" height="59.57" as="geometry"/></mxCell><mxCell id="2d_QCjYA2E_OFU-nd2_z-1" value="Distribution/&lt;br&gt;Exposure Risk Configuration" style="html=1;fontColor=#000000;strokeColor=#0e8088;fillColor=#b0e3e6;labelPosition=right;verticalLabelPosition=middle;align=left;verticalAlign=middle;spacingLeft=5;spacingRight=0;" parent="kiVt3S2lOiR5hsIp-Kmd-1" vertex="1"><mxGeometry x="123.15" y="-46.36999999999999" width="25.01" height="26.63" as="geometry"/></mxCell><mxCell id="sC6L_i11ZngWQCLefHt--0" value="Distribution/&lt;br&gt;Postal District Risk Levels" style="html=1;fontColor=#000000;strokeColor=#0e8088;fillColor=#b0e3e6;labelPosition=right;verticalLabelPosition=middle;align=left;verticalAlign=middle;spacingLeft=5;spacingRight=0;" parent="kiVt3S2lOiR5hsIp-Kmd-1" vertex="1"><mxGeometry x="123.49" y="82.14000000000001" width="25.01" height="26.63" as="geometry"/></mxCell><mxCell id="_0tLr_TGTqXjbyMgwWpl-0" value="Distribution/&lt;br&gt;Identified Risk Venues" style="html=1;fontColor=#000000;strokeColor=#0e8088;fillColor=#b0e3e6;labelPosition=right;verticalLabelPosition=middle;align=left;verticalAlign=middle;spacingLeft=5;spacingRight=0;" parent="kiVt3S2lOiR5hsIp-Kmd-1" vertex="1"><mxGeometry x="123.45" y="122.95000000000002" width="25.01" height="26.63" as="geometry"/></mxCell><mxCell id="_0tLr_TGTqXjbyMgwWpl-1" value="Distribution/&lt;br&gt;Symptoms Questionnaire" style="html=1;fontColor=#000000;strokeColor=#0e8088;fillColor=#b0e3e6;labelPosition=right;verticalLabelPosition=middle;align=left;verticalAlign=middle;spacingLeft=5;spacingRight=0;" parent="kiVt3S2lOiR5hsIp-Kmd-1" vertex="1"><mxGeometry x="123.49000000000001" y="162.89" width="25.01" height="26.63" as="geometry"/></mxCell><mxCell id="_0tLr_TGTqXjbyMgwWpl-3" value="Distribution/&lt;br&gt;Self-Isolation Configuration" style="html=1;fontColor=#000000;strokeColor=#0e8088;fillColor=#b0e3e6;labelPosition=right;verticalLabelPosition=middle;align=left;verticalAlign=middle;spacingLeft=5;spacingRight=0;" parent="kiVt3S2lOiR5hsIp-Kmd-1" vertex="1"><mxGeometry x="122.65" y="-6.739999999999991" width="25.01" height="26.63" as="geometry"/></mxCell><mxCell id="_0tLr_TGTqXjbyMgwWpl-4" value="Distribution/&lt;br&gt;App Availability&lt;br&gt;(iOS, Android)" style="html=1;fontColor=#000000;strokeColor=#0e8088;fillColor=#b0e3e6;labelPosition=right;verticalLabelPosition=middle;align=left;verticalAlign=middle;spacingLeft=5;spacingRight=0;" parent="kiVt3S2lOiR5hsIp-Kmd-1" vertex="1"><mxGeometry x="122.65" y="-126.52000000000007" width="25.01" height="26.63" as="geometry"/></mxCell><mxCell id="_0tLr_TGTqXjbyMgwWpl-6" value="Submission/&lt;br&gt;Diagnosis Keys" style="html=1;fontColor=#000000;strokeColor=#0e8088;fillColor=#b0e3e6;labelPosition=right;verticalLabelPosition=middle;align=left;verticalAlign=middle;spacingLeft=5;spacingRight=0;" parent="kiVt3S2lOiR5hsIp-Kmd-1" vertex="1"><mxGeometry x="122.58999999999999" y="365.52" width="25.01" height="26.63" as="geometry"/></mxCell><mxCell id="_0tLr_TGTqXjbyMgwWpl-7" value="Submission/&lt;br&gt;Virology Testing&lt;br&gt;(v1 &amp;amp; v2)" style="html=1;fontColor=#000000;strokeColor=#0e8088;fillColor=#b0e3e6;labelPosition=right;verticalLabelPosition=middle;align=left;verticalAlign=middle;spacingLeft=5;spacingRight=0;" parent="kiVt3S2lOiR5hsIp-Kmd-1" vertex="1"><mxGeometry x="126.61" y="227.42999999999998" width="25.01" height="26.63" as="geometry"/></mxCell><mxCell id="_0tLr_TGTqXjbyMgwWpl-8" value="Submission/&lt;br&gt;Mobile Analytics" style="html=1;fontColor=#000000;strokeColor=#0e8088;fillColor=#b0e3e6;labelPosition=right;verticalLabelPosition=middle;align=left;verticalAlign=middle;spacingLeft=5;spacingRight=0;" parent="kiVt3S2lOiR5hsIp-Kmd-1" vertex="1"><mxGeometry x="122.58999999999997" y="627.53" width="25.01" height="26.63" as="geometry"/></mxCell><mxCell id="_0tLr_TGTqXjbyMgwWpl-9" value="Submission/&lt;br&gt;Exposure Notification &lt;br&gt;Circuit Breaker" style="html=1;fontColor=#000000;strokeColor=#0e8088;fillColor=#b0e3e6;labelPosition=right;verticalLabelPosition=middle;align=left;verticalAlign=middle;spacingLeft=5;spacingRight=0;" parent="kiVt3S2lOiR5hsIp-Kmd-1" vertex="1"><mxGeometry x="122.58999999999999" y="525" width="25.01" height="26.63" as="geometry"/></mxCell><mxCell id="_0tLr_TGTqXjbyMgwWpl-10" value="Submission/&lt;br&gt;Risk Venues &lt;br&gt;Circuit Breaker" style="html=1;fontColor=#000000;strokeColor=#0e8088;fillColor=#b0e3e6;labelPosition=right;verticalLabelPosition=middle;align=left;verticalAlign=middle;spacingLeft=5;spacingRight=0;" parent="kiVt3S2lOiR5hsIp-Kmd-1" vertex="1"><mxGeometry x="122.59" y="572.08" width="25.07" height="26.69" as="geometry"/></mxCell><mxCell id="_n_Tzm7SmgrRMgYOmNy--4" style="rounded=0;orthogonalLoop=1;jettySize=auto;html=1;entryX=0;entryY=0.5;entryDx=0;entryDy=0;exitX=1;exitY=0.5;exitDx=0;exitDy=0;" parent="kiVt3S2lOiR5hsIp-Kmd-1" source="_n_Tzm7SmgrRMgYOmNy--9" target="_0tLr_TGTqXjbyMgwWpl-1" edge="1"><mxGeometry relative="1" as="geometry"><mxPoint x="-32.5" y="-104.87696855422412" as="sourcePoint"/><mxPoint x="121.40999999999985" y="-112.01499999999994" as="targetPoint"/></mxGeometry></mxCell><mxCell id="_n_Tzm7SmgrRMgYOmNy--5" style="rounded=0;orthogonalLoop=1;jettySize=auto;html=1;entryX=0;entryY=0.5;entryDx=0;entryDy=0;exitX=1;exitY=0.5;exitDx=0;exitDy=0;" parent="kiVt3S2lOiR5hsIp-Kmd-1" source="kiVt3S2lOiR5hsIp-Kmd-61" target="_0tLr_TGTqXjbyMgwWpl-3" edge="1"><mxGeometry relative="1" as="geometry"><mxPoint x="-32.5" y="-104.38999999999994" as="sourcePoint"/><mxPoint x="121.40999999999985" y="-63.955" as="targetPoint"/></mxGeometry></mxCell><mxCell id="_n_Tzm7SmgrRMgYOmNy--9" value="get questionnaire data" style="whiteSpace=wrap;html=1;fontColor=#000000;strokeColor=#0e8088;fillColor=#b0e3e6;spacingRight=5;labelPosition=left;verticalLabelPosition=middle;align=right;verticalAlign=middle;" parent="kiVt3S2lOiR5hsIp-Kmd-1" vertex="1"><mxGeometry x="-64.39" y="124.52999999999997" width="25" height="25" as="geometry"/></mxCell><mxCell id="_n_Tzm7SmgrRMgYOmNy--11" style="edgeStyle=none;rounded=0;orthogonalLoop=1;jettySize=auto;html=1;entryX=0;entryY=0.5;entryDx=0;entryDy=0;" parent="kiVt3S2lOiR5hsIp-Kmd-1" source="_n_Tzm7SmgrRMgYOmNy--10" target="kiVt3S2lOiR5hsIp-Kmd-24" edge="1"><mxGeometry relative="1" as="geometry"/></mxCell><mxCell id="_n_Tzm7SmgrRMgYOmNy--12" style="edgeStyle=none;rounded=0;orthogonalLoop=1;jettySize=auto;html=1;entryX=0;entryY=0.5;entryDx=0;entryDy=0;" parent="kiVt3S2lOiR5hsIp-Kmd-1" source="_n_Tzm7SmgrRMgYOmNy--10" target="sC6L_i11ZngWQCLefHt--0" edge="1"><mxGeometry relative="1" as="geometry"/></mxCell><mxCell id="_n_Tzm7SmgrRMgYOmNy--13" style="edgeStyle=none;rounded=0;orthogonalLoop=1;jettySize=auto;html=1;entryX=0;entryY=0.5;entryDx=0;entryDy=0;" parent="kiVt3S2lOiR5hsIp-Kmd-1" source="_n_Tzm7SmgrRMgYOmNy--10" target="_0tLr_TGTqXjbyMgwWpl-0" edge="1"><mxGeometry relative="1" as="geometry"/></mxCell><mxCell id="_n_Tzm7SmgrRMgYOmNy--10" value="poll risk data" style="html=1;fontColor=#000000;strokeColor=#0e8088;fillColor=#b0e3e6;spacingRight=5;labelPosition=left;verticalLabelPosition=middle;align=right;verticalAlign=middle;" parent="kiVt3S2lOiR5hsIp-Kmd-1" vertex="1"><mxGeometry x="-68.03999999999999" y="40.93" width="25" height="25" as="geometry"/></mxCell><mxCell id="_n_Tzm7SmgrRMgYOmNy--16" style="edgeStyle=none;rounded=0;orthogonalLoop=1;jettySize=auto;html=1;entryX=0;entryY=0.5;entryDx=0;entryDy=0;" parent="kiVt3S2lOiR5hsIp-Kmd-1" source="_n_Tzm7SmgrRMgYOmNy--15" target="_0tLr_TGTqXjbyMgwWpl-4" edge="1"><mxGeometry relative="1" as="geometry"/></mxCell><mxCell id="KaSSgH1TdQRML5fMrTCr-4" value="" style="rounded=0;orthogonalLoop=1;jettySize=auto;html=1;entryX=0;entryY=0.5;entryDx=0;entryDy=0;" parent="kiVt3S2lOiR5hsIp-Kmd-1" source="_n_Tzm7SmgrRMgYOmNy--15" target="KaSSgH1TdQRML5fMrTCr-6" edge="1"><mxGeometry relative="1" as="geometry"><mxPoint x="133" y="-418" as="targetPoint"/></mxGeometry></mxCell><mxCell id="_n_Tzm7SmgrRMgYOmNy--15" value="check &lt;br&gt;app &lt;br&gt;availability" style="html=1;fontColor=#000000;strokeColor=#0e8088;fillColor=#b0e3e6;spacingRight=5;labelPosition=left;verticalLabelPosition=middle;align=right;verticalAlign=middle;" parent="kiVt3S2lOiR5hsIp-Kmd-1" vertex="1"><mxGeometry x="-64.85" y="-206.95000000000005" width="25" height="25" as="geometry"/></mxCell><mxCell id="_n_Tzm7SmgrRMgYOmNy--19" style="edgeStyle=none;rounded=0;orthogonalLoop=1;jettySize=auto;html=1;entryX=0;entryY=0.5;entryDx=0;entryDy=0;" parent="kiVt3S2lOiR5hsIp-Kmd-1" source="_n_Tzm7SmgrRMgYOmNy--18" target="_0tLr_TGTqXjbyMgwWpl-6" edge="1"><mxGeometry relative="1" as="geometry"/></mxCell><mxCell id="_n_Tzm7SmgrRMgYOmNy--18" value="submit&amp;nbsp;&lt;br&gt;diagnosis keys" style="html=1;fontColor=#000000;strokeColor=#0e8088;fillColor=#b0e3e6;spacingRight=5;labelPosition=left;verticalLabelPosition=middle;align=right;verticalAlign=middle;" parent="kiVt3S2lOiR5hsIp-Kmd-1" vertex="1"><mxGeometry x="-64.85000000000001" y="367.15000000000003" width="25" height="25" as="geometry"/></mxCell><mxCell id="_n_Tzm7SmgrRMgYOmNy--21" style="edgeStyle=none;rounded=0;orthogonalLoop=1;jettySize=auto;html=1;entryX=0;entryY=0.25;entryDx=0;entryDy=0;" parent="kiVt3S2lOiR5hsIp-Kmd-1" source="_n_Tzm7SmgrRMgYOmNy--20" target="_0tLr_TGTqXjbyMgwWpl-7" edge="1"><mxGeometry relative="1" as="geometry"/></mxCell><mxCell id="_n_Tzm7SmgrRMgYOmNy--20" value="order test" style="html=1;fontColor=#000000;strokeColor=#0e8088;fillColor=#b0e3e6;spacingRight=5;labelPosition=left;verticalLabelPosition=middle;align=right;verticalAlign=middle;" parent="kiVt3S2lOiR5hsIp-Kmd-1" vertex="1"><mxGeometry x="-64.39" y="175.23000000000002" width="25" height="25" as="geometry"/></mxCell><mxCell id="_n_Tzm7SmgrRMgYOmNy--23" style="edgeStyle=none;rounded=0;orthogonalLoop=1;jettySize=auto;html=1;entryX=0;entryY=0.5;entryDx=0;entryDy=0;" parent="kiVt3S2lOiR5hsIp-Kmd-1" source="_n_Tzm7SmgrRMgYOmNy--22" target="_0tLr_TGTqXjbyMgwWpl-7" edge="1"><mxGeometry relative="1" as="geometry"><mxPoint x="114.5" y="355.17" as="targetPoint"/></mxGeometry></mxCell><mxCell id="_n_Tzm7SmgrRMgYOmNy--22" value="poll&amp;nbsp;&lt;br&gt;test result" style="html=1;fontColor=#000000;strokeColor=#0e8088;fillColor=#b0e3e6;spacingRight=5;labelPosition=left;verticalLabelPosition=middle;align=right;verticalAlign=middle;" parent="kiVt3S2lOiR5hsIp-Kmd-1" vertex="1"><mxGeometry x="-64.39" y="211.61000000000004" width="25" height="25" as="geometry"/></mxCell><mxCell id="_n_Tzm7SmgrRMgYOmNy--26" style="edgeStyle=none;rounded=0;orthogonalLoop=1;jettySize=auto;html=1;entryX=0;entryY=0.75;entryDx=0;entryDy=0;" parent="kiVt3S2lOiR5hsIp-Kmd-1" source="_n_Tzm7SmgrRMgYOmNy--25" target="_0tLr_TGTqXjbyMgwWpl-7" edge="1"><mxGeometry relative="1" as="geometry"/></mxCell><mxCell id="_n_Tzm7SmgrRMgYOmNy--25" value="verify manually entered &lt;br&gt;test&amp;nbsp;result code" style="html=1;fontColor=#000000;strokeColor=#0e8088;fillColor=#b0e3e6;spacingRight=5;labelPosition=left;verticalLabelPosition=middle;align=right;verticalAlign=middle;" parent="kiVt3S2lOiR5hsIp-Kmd-1" vertex="1"><mxGeometry x="-64" y="251.27" width="24.61" height="24.61" as="geometry"/></mxCell><mxCell id="_n_Tzm7SmgrRMgYOmNy--30" style="edgeStyle=none;rounded=0;orthogonalLoop=1;jettySize=auto;html=1;entryX=0;entryY=0.5;entryDx=0;entryDy=0;" parent="kiVt3S2lOiR5hsIp-Kmd-1" source="_n_Tzm7SmgrRMgYOmNy--29" target="_0tLr_TGTqXjbyMgwWpl-8" edge="1"><mxGeometry relative="1" as="geometry"/></mxCell><mxCell id="_n_Tzm7SmgrRMgYOmNy--29" value="submit&amp;nbsp;&lt;br&gt;analytics data" style="html=1;fontColor=#000000;strokeColor=#0e8088;fillColor=#b0e3e6;spacingRight=5;labelPosition=left;verticalLabelPosition=middle;align=right;verticalAlign=middle;" parent="kiVt3S2lOiR5hsIp-Kmd-1" vertex="1"><mxGeometry x="-64.85000000000001" y="623.0000000000001" width="25" height="25" as="geometry"/></mxCell><mxCell id="_n_Tzm7SmgrRMgYOmNy--37" style="edgeStyle=none;rounded=0;orthogonalLoop=1;jettySize=auto;html=1;entryX=0;entryY=0.5;entryDx=0;entryDy=0;" parent="kiVt3S2lOiR5hsIp-Kmd-1" source="_n_Tzm7SmgrRMgYOmNy--31" target="_0tLr_TGTqXjbyMgwWpl-9" edge="1"><mxGeometry relative="1" as="geometry"/></mxCell><mxCell id="_n_Tzm7SmgrRMgYOmNy--31" value="confirm &lt;br&gt;exposure &lt;br&gt;notification" style="html=1;fontColor=#000000;strokeColor=#0e8088;fillColor=#b0e3e6;spacingRight=5;labelPosition=left;verticalLabelPosition=middle;align=right;verticalAlign=middle;" parent="kiVt3S2lOiR5hsIp-Kmd-1" vertex="1"><mxGeometry x="-64.39000000000001" y="519.75" width="25" height="25" as="geometry"/></mxCell><mxCell id="_n_Tzm7SmgrRMgYOmNy--38" style="edgeStyle=none;rounded=0;orthogonalLoop=1;jettySize=auto;html=1;entryX=0;entryY=0.5;entryDx=0;entryDy=0;" parent="kiVt3S2lOiR5hsIp-Kmd-1" source="_n_Tzm7SmgrRMgYOmNy--32" target="_0tLr_TGTqXjbyMgwWpl-10" edge="1"><mxGeometry relative="1" as="geometry"/></mxCell><mxCell id="_n_Tzm7SmgrRMgYOmNy--32" value="confirm &lt;br&gt;risk venue &lt;br&gt;notification" style="html=1;fontColor=#000000;strokeColor=#0e8088;fillColor=#b0e3e6;spacingRight=5;labelPosition=left;verticalLabelPosition=middle;align=right;verticalAlign=middle;" parent="kiVt3S2lOiR5hsIp-Kmd-1" vertex="1"><mxGeometry x="-64.39000000000001" y="570.4200000000001" width="25" height="25" as="geometry"/></mxCell><mxCell id="KaSSgH1TdQRML5fMrTCr-5" value="Apple&lt;br&gt;[itunes API]" style="whiteSpace=wrap;html=1;fillColor=#b0e3e6;strokeColor=#0e8088;" parent="kiVt3S2lOiR5hsIp-Kmd-1" vertex="1"><mxGeometry x="672" y="-293" width="82.88" height="41" as="geometry"/></mxCell><mxCell id="KaSSgH1TdQRML5fMrTCr-6" value="Google&lt;br&gt;[playstore lib]" style="whiteSpace=wrap;html=1;fillColor=#b0e3e6;strokeColor=#0e8088;" parent="kiVt3S2lOiR5hsIp-Kmd-1" vertex="1"><mxGeometry x="670.13" y="-228" width="83" height="41" as="geometry"/></mxCell><mxCell id="KaSSgH1TdQRML5fMrTCr-9" value="" style="rounded=0;orthogonalLoop=1;jettySize=auto;html=1;exitX=1;exitY=0.5;exitDx=0;exitDy=0;entryX=0;entryY=0.5;entryDx=0;entryDy=0;" parent="kiVt3S2lOiR5hsIp-Kmd-1" source="_n_Tzm7SmgrRMgYOmNy--15" target="KaSSgH1TdQRML5fMrTCr-5" edge="1"><mxGeometry relative="1" as="geometry"><mxPoint x="24" y="-424" as="targetPoint"/><mxPoint x="-33.81072902845335" y="-149.18000000000006" as="sourcePoint"/></mxGeometry></mxCell><mxCell id="bhOWAWfAgV0sx57C1x7F-0" style="edgeStyle=none;rounded=0;orthogonalLoop=1;jettySize=auto;html=1;exitX=1;exitY=0.5;exitDx=0;exitDy=0;entryX=0;entryY=0.5;entryDx=0;entryDy=0;" parent="kiVt3S2lOiR5hsIp-Kmd-1" source="v7NWKqyv9IXQPwMrkkju-6" target="gddFXcormWA68JvpZiPz-16" edge="1"><mxGeometry relative="1" as="geometry"><mxPoint x="127.1599999999994" y="708.5349999999997" as="targetPoint"/><mxPoint x="-28.000000000000455" y="711.1000000000003" as="sourcePoint"/></mxGeometry></mxCell><mxCell id="bhOWAWfAgV0sx57C1x7F-1" value="monitor and &lt;br&gt;configure" style="edgeLabel;html=1;align=center;verticalAlign=middle;resizable=0;points=[];" parent="bhOWAWfAgV0sx57C1x7F-0" vertex="1" connectable="0"><mxGeometry x="-0.14" relative="1" as="geometry"><mxPoint x="2.75" y="6.4300000000000015" as="offset"/></mxGeometry></mxCell><mxCell id="bhOWAWfAgV0sx57C1x7F-4" value="QuickSight" style="rounded=0;whiteSpace=wrap;html=1;fillColor=#b0e3e6;strokeColor=#0e8088;labelPosition=left;verticalLabelPosition=middle;align=right;verticalAlign=middle;spacingRight=5;" parent="kiVt3S2lOiR5hsIp-Kmd-1" vertex="1"><mxGeometry x="-67.22999999999999" y="961.77" width="25" height="25" as="geometry"/></mxCell><mxCell id="bhOWAWfAgV0sx57C1x7F-5" style="edgeStyle=none;rounded=0;orthogonalLoop=1;jettySize=auto;html=1;exitX=1;exitY=0.5;exitDx=0;exitDy=0;entryX=0;entryY=0.5;entryDx=0;entryDy=0;" parent="kiVt3S2lOiR5hsIp-Kmd-1" source="bhOWAWfAgV0sx57C1x7F-4" target="gddFXcormWA68JvpZiPz-16" edge="1"><mxGeometry relative="1" as="geometry"><mxPoint x="122" y="750.7649999999998" as="targetPoint"/><mxPoint x="-29.84999999999991" y="784.82" as="sourcePoint"/></mxGeometry></mxCell><mxCell id="bhOWAWfAgV0sx57C1x7F-6" value="monitor" style="edgeLabel;html=1;align=center;verticalAlign=middle;resizable=0;points=[];" parent="bhOWAWfAgV0sx57C1x7F-5" vertex="1" connectable="0"><mxGeometry x="-0.14" relative="1" as="geometry"><mxPoint x="-2.01" y="-2.8099999999999987" as="offset"/></mxGeometry></mxCell><mxCell id="bhOWAWfAgV0sx57C1x7F-7" value="&lt;font color=&quot;#000000&quot;&gt;Business&lt;br&gt;Stakeholder&lt;br&gt;&lt;/font&gt;" style="pointerEvents=1;shadow=0;dashed=0;html=1;strokeColor=#314354;labelPosition=center;verticalLabelPosition=bottom;verticalAlign=top;align=center;fillColor=#647687;shape=mxgraph.mscae.intune.user_group;fontColor=#ffffff;" parent="kiVt3S2lOiR5hsIp-Kmd-1" vertex="1"><mxGeometry x="-538" y="901.8000000000001" width="50" height="36.89" as="geometry"/></mxCell><mxCell id="bhOWAWfAgV0sx57C1x7F-8" value="" style="outlineConnect=0;dashed=0;verticalLabelPosition=bottom;verticalAlign=top;align=center;html=1;shape=mxgraph.aws3.mobile_client;fillColor=#515151;strokeColor=none;fontColor=#000000;shadow=0;" parent="kiVt3S2lOiR5hsIp-Kmd-1" vertex="1"><mxGeometry x="-487.00000000000006" y="879.92" width="20" height="33" as="geometry"/></mxCell><mxCell id="bhOWAWfAgV0sx57C1x7F-10" value="CDOC&lt;br&gt;Integrations" style="rounded=0;whiteSpace=wrap;html=1;fillColor=#b0e3e6;strokeColor=#0e8088;labelPosition=center;verticalLabelPosition=top;align=center;verticalAlign=bottom;spacingRight=5;" parent="kiVt3S2lOiR5hsIp-Kmd-1" vertex="1"><mxGeometry x="-217" y="1001" width="25" height="25" as="geometry"/></mxCell><mxCell id="KR8ZkeIKrjesKDxfZbLy-2" value="" style="group" parent="kiVt3S2lOiR5hsIp-Kmd-1" vertex="1" connectable="0"><mxGeometry x="-329" y="-403" width="279" height="84" as="geometry"/></mxCell><mxCell id="kiVt3S2lOiR5hsIp-Kmd-17" value="up to 42M mobile clients (50/50 iOS/Android)" style="text;html=1;strokeColor=none;fillColor=none;align=left;verticalAlign=middle;whiteSpace=wrap;rounded=0;fontSize=20;fontColor=#B3B3B3;" parent="KR8ZkeIKrjesKDxfZbLy-2" vertex="1"><mxGeometry x="35" y="49" width="244" height="20" as="geometry"/></mxCell><mxCell id="gddFXcormWA68JvpZiPz-10" value="Mobile App" style="text;html=1;strokeColor=none;fillColor=none;align=left;verticalAlign=middle;whiteSpace=wrap;rounded=0;fontSize=27;fontColor=#B3B3B3;" parent="KR8ZkeIKrjesKDxfZbLy-2" vertex="1"><mxGeometry width="180" height="20" as="geometry"/></mxCell><mxCell id="kiVt3S2lOiR5hsIp-Kmd-127" value="" style="outlineConnect=0;dashed=0;verticalLabelPosition=bottom;verticalAlign=top;align=center;html=1;shape=mxgraph.aws3.mobile_client;fillColor=#515151;strokeColor=none;fontColor=#000000;shadow=0;" parent="KR8ZkeIKrjesKDxfZbLy-2" vertex="1"><mxGeometry y="45" width="23" height="39" as="geometry"/></mxCell><mxCell id="KR8ZkeIKrjesKDxfZbLy-3" value="" style="group" parent="kiVt3S2lOiR5hsIp-Kmd-1" vertex="1" connectable="0"><mxGeometry x="806" y="-372" width="688" height="103" as="geometry"/></mxCell><mxCell id="v7NWKqyv9IXQPwMrkkju-3" value="" style="ellipse;shape=cloud;whiteSpace=wrap;html=1;fillColor=#bac8d3;strokeWidth=2;strokeColor=#23445d;" parent="KR8ZkeIKrjesKDxfZbLy-3" vertex="1"><mxGeometry x="14" y="46" width="64" height="41" as="geometry"/></mxCell><mxCell id="kiVt3S2lOiR5hsIp-Kmd-19" value="External Data Sources and Systems" style="text;html=1;strokeColor=none;fillColor=none;align=left;verticalAlign=middle;whiteSpace=wrap;rounded=0;fontSize=27;fontColor=#B3B3B3;" parent="KR8ZkeIKrjesKDxfZbLy-3" vertex="1"><mxGeometry width="569" height="20" as="geometry"/></mxCell><mxCell id="kiVt3S2lOiR5hsIp-Kmd-74" value="for system clients and &lt;br&gt;provider of external data or services" style="text;html=1;strokeColor=none;fillColor=none;align=left;verticalAlign=middle;whiteSpace=wrap;rounded=0;fontSize=20;fontColor=#B3B3B3;" parent="KR8ZkeIKrjesKDxfZbLy-3" vertex="1"><mxGeometry x="167.16000000000008" y="52" width="520.84" height="20" as="geometry"/></mxCell><mxCell id="gddFXcormWA68JvpZiPz-13" value="" style="pointerEvents=1;shadow=0;dashed=0;html=1;strokeColor=none;labelPosition=center;verticalLabelPosition=bottom;verticalAlign=top;align=center;fillColor=#515151;shape=mxgraph.mscae.enterprise.database_server;fontColor=#000000;" parent="KR8ZkeIKrjesKDxfZbLy-3" vertex="1"><mxGeometry x="64.14999999999998" y="53" width="38" height="50" as="geometry"/></mxCell><mxCell id="v7NWKqyv9IXQPwMrkkju-5" value="" style="shape=mxgraph.bpmn.service_task;html=1;outlineConnect=0;strokeColor=#23445d;fillColor=#bac8d3;fontSize=14;" parent="KR8ZkeIKrjesKDxfZbLy-3" vertex="1"><mxGeometry x="102.46000000000004" y="42.5" width="41.23" height="39" as="geometry"/></mxCell><mxCell id="KR8ZkeIKrjesKDxfZbLy-4" value="" style="group" parent="kiVt3S2lOiR5hsIp-Kmd-1" vertex="1" connectable="0"><mxGeometry x="-742" y="-356" width="349" height="115.94999999999999" as="geometry"/></mxCell><mxCell id="kiVt3S2lOiR5hsIp-Kmd-122" value="User and Web/Mobile Integrations" style="text;html=1;strokeColor=none;fillColor=none;align=left;verticalAlign=middle;whiteSpace=wrap;rounded=0;fontSize=27;fontColor=#B3B3B3;" parent="KR8ZkeIKrjesKDxfZbLy-4" vertex="1"><mxGeometry width="287" height="20" as="geometry"/></mxCell><mxCell id="gddFXcormWA68JvpZiPz-29" value="" style="pointerEvents=1;dashed=0;html=1;strokeColor=none;fillColor=#4D4D4D;labelPosition=center;verticalLabelPosition=bottom;verticalAlign=top;outlineConnect=0;align=center;shape=mxgraph.office.devices.laptop;fontColor=#000000;gradientColor=none;" parent="KR8ZkeIKrjesKDxfZbLy-4" vertex="1"><mxGeometry x="45.5" y="81" width="49.5" height="34.95" as="geometry"/></mxCell><mxCell id="gddFXcormWA68JvpZiPz-30" value="" style="outlineConnect=0;dashed=0;verticalLabelPosition=bottom;verticalAlign=top;align=center;html=1;shape=mxgraph.aws3.mobile_client;fillColor=#515151;strokeColor=none;fontColor=#000000;shadow=0;" parent="KR8ZkeIKrjesKDxfZbLy-4" vertex="1"><mxGeometry x="9" y="72" width="20" height="33" as="geometry"/></mxCell><mxCell id="gddFXcormWA68JvpZiPz-31" value="for citizen and &lt;br&gt;user journeys" style="text;html=1;strokeColor=none;fillColor=none;align=left;verticalAlign=middle;whiteSpace=wrap;rounded=0;fontSize=20;fontColor=#B3B3B3;" parent="KR8ZkeIKrjesKDxfZbLy-4" vertex="1"><mxGeometry x="105" y="72" width="244" height="20" as="geometry"/></mxCell><mxCell id="gddFXcormWA68JvpZiPz-28" value="" style="verticalLabelPosition=bottom;html=1;verticalAlign=top;align=center;shape=mxgraph.azure.user;fillColor=#647687;strokeColor=#314354;fontColor=#ffffff;" parent="KR8ZkeIKrjesKDxfZbLy-4" vertex="1"><mxGeometry x="25.5" y="54" width="36.03" height="37" as="geometry"/></mxCell><mxCell id="2XKFC0LUwWtvEefJSjyc-5" style="edgeStyle=none;rounded=0;orthogonalLoop=1;jettySize=auto;html=1;entryX=1;entryY=0.5;entryDx=0;entryDy=0;" parent="kiVt3S2lOiR5hsIp-Kmd-1" source="2XKFC0LUwWtvEefJSjyc-1" target="2XKFC0LUwWtvEefJSjyc-7" edge="1"><mxGeometry relative="1" as="geometry"><mxPoint x="-460" y="647.7249999999999" as="targetPoint"/></mxGeometry></mxCell><mxCell id="2XKFC0LUwWtvEefJSjyc-1" value="" style="rounded=0;whiteSpace=wrap;html=1;fillColor=#b0e3e6;strokeColor=#0e8088;" parent="kiVt3S2lOiR5hsIp-Kmd-1" vertex="1"><mxGeometry x="-335.5" y="618.96" width="25" height="25" as="geometry"/></mxCell><mxCell id="2XKFC0LUwWtvEefJSjyc-3" value="update app" style="edgeStyle=none;rounded=0;orthogonalLoop=1;jettySize=auto;html=1;" parent="kiVt3S2lOiR5hsIp-Kmd-1" source="2XKFC0LUwWtvEefJSjyc-2" target="2XKFC0LUwWtvEefJSjyc-1" edge="1"><mxGeometry relative="1" as="geometry"/></mxCell><mxCell id="2XKFC0LUwWtvEefJSjyc-2" value="" style="verticalLabelPosition=bottom;html=1;verticalAlign=top;align=center;shape=mxgraph.azure.user;fillColor=#647687;strokeColor=#314354;fontColor=#ffffff;" parent="kiVt3S2lOiR5hsIp-Kmd-1" vertex="1"><mxGeometry x="-465.75" y="572.0000000000001" width="36.03" height="37" as="geometry"/></mxCell><mxCell id="2XKFC0LUwWtvEefJSjyc-7" value="&lt;span&gt;Apple / Google App Store&lt;/span&gt;" style="rounded=0;whiteSpace=wrap;html=1;fillColor=#b0e3e6;strokeColor=#0e8088;" parent="kiVt3S2lOiR5hsIp-Kmd-1" vertex="1"><mxGeometry x="-522" y="628.26" width="75.5" height="44.77" as="geometry"/></mxCell><mxCell id="f6--aViFOyA7zPGySS46-0" value="Medical" style="outlineConnect=0;dashed=0;verticalLabelPosition=middle;verticalAlign=middle;align=left;html=1;shape=mxgraph.aws3.medical_emergency;fillColor=#5294CF;gradientColor=none;labelPosition=right;spacingLeft=3;" parent="kiVt3S2lOiR5hsIp-Kmd-1" vertex="1"><mxGeometry x="1326" y="684.34" width="38" height="37.5" as="geometry"/></mxCell><mxCell id="f6--aViFOyA7zPGySS46-1" value="" style="outlineConnect=0;dashed=0;verticalLabelPosition=middle;verticalAlign=middle;align=left;html=1;shape=mxgraph.aws3.medical_emergency;fillColor=#5294CF;gradientColor=none;labelPosition=right;spacingLeft=3;" parent="kiVt3S2lOiR5hsIp-Kmd-1" vertex="1"><mxGeometry x="-187" y="117.50999999999999" width="38" height="37.5" as="geometry"/></mxCell><mxCell id="f6--aViFOyA7zPGySS46-2" value="" style="outlineConnect=0;dashed=0;verticalLabelPosition=middle;verticalAlign=middle;align=left;html=1;shape=mxgraph.aws3.medical_emergency;fillColor=#5294CF;gradientColor=none;labelPosition=right;spacingLeft=3;" parent="kiVt3S2lOiR5hsIp-Kmd-1" vertex="1"><mxGeometry x="726.97" y="263.25" width="38" height="37.5" as="geometry"/></mxCell><mxCell id="htzLuNbhE3eNA5ZVdHbW-0" value="" style="edgeStyle=none;rounded=0;orthogonalLoop=1;jettySize=auto;html=1;exitX=0;exitY=0.5;exitDx=0;exitDy=0;entryX=1;entryY=0.5;entryDx=0;entryDy=0;" parent="kiVt3S2lOiR5hsIp-Kmd-1" source="htzLuNbhE3eNA5ZVdHbW-1" target="htzLuNbhE3eNA5ZVdHbW-3" edge="1"><mxGeometry relative="1" as="geometry"><mxPoint x="-381.0600000000002" y="-6.225000000000065" as="targetPoint"/></mxGeometry></mxCell><mxCell id="htzLuNbhE3eNA5ZVdHbW-1" value="" style="rounded=0;whiteSpace=wrap;html=1;fillColor=#b0e3e6;strokeColor=#0e8088;" parent="kiVt3S2lOiR5hsIp-Kmd-1" vertex="1"><mxGeometry x="-338.49" y="40.90000000000002" width="25" height="25" as="geometry"/></mxCell><mxCell id="htzLuNbhE3eNA5ZVdHbW-3" value="England&lt;br&gt;Isolation Payment Claim (SIP) Gateway Website" style="whiteSpace=wrap;html=1;strokeColor=#0e8088;fontStyle=0;fillColor=#b0e3e6;" parent="kiVt3S2lOiR5hsIp-Kmd-1" vertex="1"><mxGeometry x="-602" y="48.28" width="125.54" height="56.72" as="geometry"/></mxCell><mxCell id="htzLuNbhE3eNA5ZVdHbW-4" value="" style="pointerEvents=1;dashed=0;html=1;strokeColor=none;fillColor=#4D4D4D;labelPosition=center;verticalLabelPosition=bottom;verticalAlign=top;outlineConnect=0;align=center;shape=mxgraph.office.devices.laptop;fontColor=#000000;gradientColor=none;" parent="kiVt3S2lOiR5hsIp-Kmd-1" vertex="1"><mxGeometry x="-560" y="-9.999999999999986" width="40" height="30" as="geometry"/></mxCell><mxCell id="htzLuNbhE3eNA5ZVdHbW-5" value="claim isolation payment" style="edgeStyle=none;rounded=0;orthogonalLoop=1;jettySize=auto;html=1;startArrow=none;startFill=0;endArrow=classic;endFill=1;strokeColor=#000000;fontColor=#000000;" parent="kiVt3S2lOiR5hsIp-Kmd-1" source="htzLuNbhE3eNA5ZVdHbW-6" target="htzLuNbhE3eNA5ZVdHbW-1" edge="1"><mxGeometry relative="1" as="geometry"/></mxCell><mxCell id="htzLuNbhE3eNA5ZVdHbW-6" value="" style="verticalLabelPosition=bottom;html=1;verticalAlign=top;align=center;shape=mxgraph.azure.user;fillColor=#647687;strokeColor=#314354;fontColor=#ffffff;" parent="kiVt3S2lOiR5hsIp-Kmd-1" vertex="1"><mxGeometry x="-514.25" y="-4.499999999999957" width="36.03" height="37" as="geometry"/></mxCell><mxCell id="htzLuNbhE3eNA5ZVdHbW-8" value="create isolation&lt;br&gt;payment token" style="html=1;fontColor=#000000;strokeColor=#0e8088;fillColor=#b0e3e6;spacingRight=5;labelPosition=left;verticalLabelPosition=middle;align=right;verticalAlign=middle;" parent="kiVt3S2lOiR5hsIp-Kmd-1" vertex="1"><mxGeometry x="-64.85" y="290.80000000000007" width="25" height="25" as="geometry"/></mxCell><mxCell id="htzLuNbhE3eNA5ZVdHbW-9" value="update isolation&lt;br&gt;payment token" style="html=1;fontColor=#000000;strokeColor=#0e8088;fillColor=#b0e3e6;spacingRight=5;labelPosition=left;verticalLabelPosition=middle;align=right;verticalAlign=middle;" parent="kiVt3S2lOiR5hsIp-Kmd-1" vertex="1"><mxGeometry x="-64.46000000000001" y="324.46" width="24.61" height="24.61" as="geometry"/></mxCell><mxCell id="htzLuNbhE3eNA5ZVdHbW-10" value="Submission/&lt;br&gt;Isolation Payment" style="html=1;fontColor=#000000;strokeColor=#0e8088;fillColor=#b0e3e6;labelPosition=right;verticalLabelPosition=middle;align=left;verticalAlign=middle;spacingLeft=5;spacingRight=0;" parent="kiVt3S2lOiR5hsIp-Kmd-1" vertex="1"><mxGeometry x="122.65" y="300.75" width="25.01" height="26.63" as="geometry"/></mxCell><mxCell id="htzLuNbhE3eNA5ZVdHbW-11" value="SIP Gateway&lt;br&gt;England" style="whiteSpace=wrap;html=1;fontStyle=0;fillColor=#b0e3e6;strokeColor=#0E8088;" parent="kiVt3S2lOiR5hsIp-Kmd-1" vertex="1"><mxGeometry x="759.42" y="759.55" width="87.58" height="59.57" as="geometry"/></mxCell><mxCell id="htzLuNbhE3eNA5ZVdHbW-15" value="Isolation Payment" style="whiteSpace=wrap;html=1;strokeColor=#0E8088;fillColor=#B0E3E6;labelPosition=left;verticalLabelPosition=middle;align=right;verticalAlign=middle;spacingRight=5;" parent="kiVt3S2lOiR5hsIp-Kmd-1" vertex="1"><mxGeometry x="499.14" y="785.4299999999998" width="25" height="25" as="geometry"/></mxCell><mxCell id="htzLuNbhE3eNA5ZVdHbW-18" style="rounded=0;orthogonalLoop=1;jettySize=auto;html=1;" parent="kiVt3S2lOiR5hsIp-Kmd-1" source="htzLuNbhE3eNA5ZVdHbW-11" target="htzLuNbhE3eNA5ZVdHbW-15" edge="1"><mxGeometry relative="1" as="geometry"><mxPoint x="838.3899999999998" y="728.17" as="sourcePoint"/><mxPoint x="530.9900000000001" y="703.762497655517" as="targetPoint"/></mxGeometry></mxCell><mxCell id="htzLuNbhE3eNA5ZVdHbW-19" value="verify isolation payment token&lt;br&gt;consume isolation payment token" style="edgeLabel;html=1;align=center;verticalAlign=middle;resizable=0;points=[];" parent="htzLuNbhE3eNA5ZVdHbW-18" vertex="1" connectable="0"><mxGeometry x="0.0699" y="-1" relative="1" as="geometry"><mxPoint x="32.94000000000001" y="8.2" as="offset"/></mxGeometry></mxCell><mxCell id="htzLuNbhE3eNA5ZVdHbW-20" style="edgeStyle=none;rounded=0;orthogonalLoop=1;jettySize=auto;html=1;" parent="kiVt3S2lOiR5hsIp-Kmd-1" source="htzLuNbhE3eNA5ZVdHbW-8" target="htzLuNbhE3eNA5ZVdHbW-10" edge="1"><mxGeometry relative="1" as="geometry"><mxPoint x="-29.84999999999991" y="389.68434844192643" as="sourcePoint"/><mxPoint x="134.1500000000001" y="390.1350000000002" as="targetPoint"/></mxGeometry></mxCell><mxCell id="htzLuNbhE3eNA5ZVdHbW-21" style="edgeStyle=none;rounded=0;orthogonalLoop=1;jettySize=auto;html=1;" parent="kiVt3S2lOiR5hsIp-Kmd-1" source="htzLuNbhE3eNA5ZVdHbW-9" target="htzLuNbhE3eNA5ZVdHbW-10" edge="1"><mxGeometry relative="1" as="geometry"><mxPoint x="-29.84999999999991" y="314.01764752939926" as="sourcePoint"/><mxPoint x="132.6500000000001" y="323.347065411589" as="targetPoint"/></mxGeometry></mxCell><mxCell id="htzLuNbhE3eNA5ZVdHbW-22" value="Gibraltar" style="rounded=0;whiteSpace=wrap;html=1;fillColor=#bac8d3;strokeColor=#23445d;" parent="kiVt3S2lOiR5hsIp-Kmd-1" vertex="1"><mxGeometry x="795.1899999999999" y="-19.74" width="60.86" height="33.02" as="geometry"/></mxCell><mxCell id="TfqcYc-YcKdYyvFgDLuv-0" value="Submission/&lt;br&gt;Empty" style="html=1;fontColor=#000000;strokeColor=#0e8088;fillColor=#b0e3e6;labelPosition=right;verticalLabelPosition=middle;align=left;verticalAlign=middle;spacingLeft=5;spacingRight=0;" parent="kiVt3S2lOiR5hsIp-Kmd-1" vertex="1"><mxGeometry x="123.48999999999998" y="467.87" width="25.01" height="26.63" as="geometry"/></mxCell><mxCell id="VR1xZkTdcmqYDOQWSaqR-0" value="time-based &lt;br&gt;traffic obfuscation" style="html=1;fontColor=#000000;strokeColor=#0e8088;fillColor=#b0e3e6;spacingRight=5;labelPosition=left;verticalLabelPosition=middle;align=right;verticalAlign=middle;" parent="kiVt3S2lOiR5hsIp-Kmd-1" vertex="1"><mxGeometry x="-64.85000000000001" y="470.00000000000006" width="25" height="25" as="geometry"/></mxCell><mxCell id="VR1xZkTdcmqYDOQWSaqR-1" style="edgeStyle=none;rounded=0;orthogonalLoop=1;jettySize=auto;html=1;entryX=0;entryY=0.5;entryDx=0;entryDy=0;exitX=1;exitY=0.5;exitDx=0;exitDy=0;" parent="kiVt3S2lOiR5hsIp-Kmd-1" source="VR1xZkTdcmqYDOQWSaqR-0" target="TfqcYc-YcKdYyvFgDLuv-0" edge="1"><mxGeometry relative="1" as="geometry"><mxPoint x="-29.84999999999991" y="389.68434844192643" as="sourcePoint"/><mxPoint x="134.1500000000001" y="390.1350000000002" as="targetPoint"/></mxGeometry></mxCell><mxCell id="VR1xZkTdcmqYDOQWSaqR-2" value="Submission/&lt;br&gt;&lt;span style=&quot;text-align: right&quot;&gt;Epidemiological Data&lt;/span&gt;" style="html=1;fontColor=#000000;strokeColor=#0e8088;fillColor=#b0e3e6;labelPosition=right;verticalLabelPosition=middle;align=left;verticalAlign=middle;spacingLeft=5;spacingRight=0;" parent="kiVt3S2lOiR5hsIp-Kmd-1" vertex="1"><mxGeometry x="122.58999999999997" y="679.63" width="25.01" height="26.63" as="geometry"/></mxCell><mxCell id="VR1xZkTdcmqYDOQWSaqR-3" value="submit&amp;nbsp;&lt;br&gt;epidemiological data" style="html=1;fontColor=#000000;strokeColor=#0e8088;fillColor=#b0e3e6;spacingRight=5;labelPosition=left;verticalLabelPosition=middle;align=right;verticalAlign=middle;" parent="kiVt3S2lOiR5hsIp-Kmd-1" vertex="1"><mxGeometry x="-64.00000000000001" y="659.3400000000001" width="25" height="25" as="geometry"/></mxCell><mxCell id="VR1xZkTdcmqYDOQWSaqR-4" style="edgeStyle=none;rounded=0;orthogonalLoop=1;jettySize=auto;html=1;entryX=0;entryY=0.5;entryDx=0;entryDy=0;exitX=1;exitY=0.5;exitDx=0;exitDy=0;" parent="kiVt3S2lOiR5hsIp-Kmd-1" source="VR1xZkTdcmqYDOQWSaqR-3" target="VR1xZkTdcmqYDOQWSaqR-2" edge="1"><mxGeometry relative="1" as="geometry"><mxPoint x="-29.84999999999991" y="645.8819166571398" as="sourcePoint"/><mxPoint x="132.59000000000015" y="650.8449999999998" as="targetPoint"/></mxGeometry></mxCell><mxCell id="4c_xIqmp8VDEHMMr6Xgv-0" value="SIP Gateway&lt;br&gt;Wales" style="whiteSpace=wrap;html=1;fontStyle=0;fillColor=#b0e3e6;strokeColor=#0E8088;" parent="kiVt3S2lOiR5hsIp-Kmd-1" vertex="1"><mxGeometry x="759.42" y="843" width="87.58" height="61" as="geometry"/></mxCell><mxCell id="4c_xIqmp8VDEHMMr6Xgv-1" style="rounded=0;orthogonalLoop=1;jettySize=auto;html=1;entryX=1;entryY=0.5;entryDx=0;entryDy=0;" parent="kiVt3S2lOiR5hsIp-Kmd-1" source="4c_xIqmp8VDEHMMr6Xgv-0" target="htzLuNbhE3eNA5ZVdHbW-15" edge="1"><mxGeometry relative="1" as="geometry"><mxPoint x="775.1499999999996" y="811.3595297419397" as="sourcePoint"/><mxPoint x="537.1399999999999" y="808.1011273872268" as="targetPoint"/></mxGeometry></mxCell><mxCell id="4c_xIqmp8VDEHMMr6Xgv-2" value="verify isolation payment token&lt;br&gt;consume isolation payment token" style="edgeLabel;html=1;align=center;verticalAlign=middle;resizable=0;points=[];" parent="4c_xIqmp8VDEHMMr6Xgv-1" vertex="1" connectable="0"><mxGeometry x="0.0699" y="-1" relative="1" as="geometry"><mxPoint x="32.94000000000001" y="8.2" as="offset"/></mxGeometry></mxCell><mxCell id="rnq0_UJ7i2yqhwmJoK32-8" value="" style="rounded=0;whiteSpace=wrap;html=1;fillColor=#b0e3e6;strokeColor=#0e8088;" parent="kiVt3S2lOiR5hsIp-Kmd-1" vertex="1"><mxGeometry x="-337" y="504.03" width="25" height="25" as="geometry"/></mxCell><mxCell id="rnq0_UJ7i2yqhwmJoK32-11" value="consent to &lt;br&gt;sharing &lt;br&gt;diagnosis keys&lt;br&gt;and/or &lt;br&gt;venue history" style="edgeStyle=none;rounded=0;orthogonalLoop=1;jettySize=auto;html=1;exitX=0.87;exitY=0.65;exitDx=0;exitDy=0;exitPerimeter=0;entryX=-0.065;entryY=0.46;entryDx=0;entryDy=0;entryPerimeter=0;" parent="kiVt3S2lOiR5hsIp-Kmd-1" source="QW3yQWbKvb7C4nvVj8cn-4" target="rnq0_UJ7i2yqhwmJoK32-8" edge="1"><mxGeometry x="-0.0071" y="8" relative="1" as="geometry"><mxPoint x="-439.1538999999998" y="460.62000000000035" as="sourcePoint"/><mxPoint x="-336" y="452" as="targetPoint"/><mxPoint as="offset"/></mxGeometry></mxCell><mxCell id="QW3yQWbKvb7C4nvVj8cn-4" value="" style="verticalLabelPosition=bottom;html=1;verticalAlign=top;align=center;shape=mxgraph.azure.user;fillColor=#647687;strokeColor=#314354;fontColor=#ffffff;" parent="kiVt3S2lOiR5hsIp-Kmd-1" vertex="1"><mxGeometry x="-470" y="491.8400000000001" width="36.03" height="37" as="geometry"/></mxCell></root></mxGraphModel></diagram></mxfile>